ISO-10303-21;
HEADER;
/* Generated by software containing ST-Developer
 * from STEP Tools, Inc. (www.steptools.com) 
 */
/* OPTION: using custom renumber hook */

FILE_DESCRIPTION(
/* description */ ('STEP AP242 Edition 2',
'CAx-IF Rec.Pracs.---Representation and Presentation of Product Manufa
cturing Information (PMI)---4.0---2014-10-13',
'CAx-IF Rec.Pracs.---3D Tessellated Geometry---0.4---2014-09-14','2;1',
'CAx-IF Rec.Pracs.---User Defined Attributes---1.5---2016-08-15'),
/* implementation_level */ '2;1');

FILE_NAME(
/* name */ '696a8d818c54bc14e7cfaa48',
/* time_stamp */ '2026-01-16T19:12:02Z',
/* author */ (''),
/* organization */ (''),
/* preprocessor_version */ 'ST-DEVELOPER v20',
/* originating_system */ 'ONSHAPE BY PTC INC, 1.209',
/* authorisation */ '  ');

FILE_SCHEMA (('AP242_MANAGED_MODEL_BASED_3D_ENGINEERING_MIM_LF { 1 0 10303 442 3 1 4 }'));
ENDSEC;

DATA;
#10=SHAPE_REPRESENTATION_RELATIONSHIP('','',#247,#11);
#11=ADVANCED_BREP_SHAPE_REPRESENTATION('',(#245),#385);
#12=ORIENTED_EDGE('',*,*,#72,.F.);
#13=ORIENTED_EDGE('',*,*,#73,.T.);
#14=ORIENTED_EDGE('',*,*,#74,.T.);
#15=ORIENTED_EDGE('',*,*,#75,.F.);
#16=ORIENTED_EDGE('',*,*,#76,.F.);
#17=ORIENTED_EDGE('',*,*,#77,.T.);
#18=ORIENTED_EDGE('',*,*,#78,.T.);
#19=ORIENTED_EDGE('',*,*,#79,.F.);
#20=ORIENTED_EDGE('',*,*,#80,.T.);
#21=ORIENTED_EDGE('',*,*,#81,.T.);
#22=ORIENTED_EDGE('',*,*,#82,.F.);
#23=ORIENTED_EDGE('',*,*,#83,.T.);
#24=ORIENTED_EDGE('',*,*,#84,.F.);
#25=ORIENTED_EDGE('',*,*,#72,.T.);
#26=ORIENTED_EDGE('',*,*,#84,.T.);
#27=ORIENTED_EDGE('',*,*,#85,.T.);
#28=ORIENTED_EDGE('',*,*,#86,.F.);
#29=ORIENTED_EDGE('',*,*,#73,.F.);
#30=ORIENTED_EDGE('',*,*,#87,.T.);
#31=ORIENTED_EDGE('',*,*,#88,.T.);
#32=ORIENTED_EDGE('',*,*,#89,.F.);
#33=ORIENTED_EDGE('',*,*,#74,.F.);
#34=ORIENTED_EDGE('',*,*,#86,.T.);
#35=ORIENTED_EDGE('',*,*,#90,.T.);
#36=ORIENTED_EDGE('',*,*,#89,.T.);
#37=ORIENTED_EDGE('',*,*,#91,.T.);
#38=ORIENTED_EDGE('',*,*,#80,.F.);
#39=ORIENTED_EDGE('',*,*,#75,.T.);
#40=ORIENTED_EDGE('',*,*,#82,.T.);
#41=ORIENTED_EDGE('',*,*,#92,.T.);
#42=ORIENTED_EDGE('',*,*,#87,.F.);
#43=ORIENTED_EDGE('',*,*,#93,.T.);
#44=ORIENTED_EDGE('',*,*,#94,.T.);
#45=ORIENTED_EDGE('',*,*,#95,.F.);
#46=ORIENTED_EDGE('',*,*,#77,.F.);
#47=ORIENTED_EDGE('',*,*,#96,.T.);
#48=ORIENTED_EDGE('',*,*,#97,.F.);
#49=ORIENTED_EDGE('',*,*,#96,.F.);
#50=ORIENTED_EDGE('',*,*,#76,.T.);
#51=ORIENTED_EDGE('',*,*,#98,.T.);
#52=ORIENTED_EDGE('',*,*,#99,.F.);
#53=ORIENTED_EDGE('',*,*,#98,.F.);
#54=ORIENTED_EDGE('',*,*,#79,.T.);
#55=ORIENTED_EDGE('',*,*,#100,.T.);
#56=ORIENTED_EDGE('',*,*,#101,.T.);
#57=ORIENTED_EDGE('',*,*,#100,.F.);
#58=ORIENTED_EDGE('',*,*,#78,.F.);
#59=ORIENTED_EDGE('',*,*,#95,.T.);
#60=ORIENTED_EDGE('',*,*,#94,.F.);
#61=ORIENTED_EDGE('',*,*,#97,.T.);
#62=ORIENTED_EDGE('',*,*,#99,.T.);
#63=ORIENTED_EDGE('',*,*,#101,.F.);
#64=ORIENTED_EDGE('',*,*,#81,.F.);
#65=ORIENTED_EDGE('',*,*,#91,.F.);
#66=ORIENTED_EDGE('',*,*,#88,.F.);
#67=ORIENTED_EDGE('',*,*,#92,.F.);
#68=ORIENTED_EDGE('',*,*,#83,.F.);
#69=ORIENTED_EDGE('',*,*,#93,.F.);
#70=ORIENTED_EDGE('',*,*,#90,.F.);
#71=ORIENTED_EDGE('',*,*,#85,.F.);
#72=EDGE_CURVE('',#102,#103,#122,.T.);
#73=EDGE_CURVE('',#102,#104,#123,.T.);
#74=EDGE_CURVE('',#104,#105,#124,.T.);
#75=EDGE_CURVE('',#103,#105,#125,.T.);
#76=EDGE_CURVE('',#106,#107,#126,.T.);
#77=EDGE_CURVE('',#106,#108,#127,.T.);
#78=EDGE_CURVE('',#108,#109,#128,.T.);
#79=EDGE_CURVE('',#107,#109,#129,.T.);
#80=EDGE_CURVE('',#103,#110,#130,.T.);
#81=EDGE_CURVE('',#110,#111,#131,.T.);
#82=EDGE_CURVE('',#112,#111,#132,.T.);
#83=EDGE_CURVE('',#112,#113,#133,.F.);
#84=EDGE_CURVE('',#102,#113,#134,.T.);
#85=EDGE_CURVE('',#113,#114,#135,.T.);
#86=EDGE_CURVE('',#104,#114,#136,.T.);
#87=EDGE_CURVE('',#115,#116,#137,.T.);
#88=EDGE_CURVE('',#116,#117,#138,.T.);
#89=EDGE_CURVE('',#105,#117,#139,.T.);
#90=EDGE_CURVE('',#114,#115,#140,.F.);
#91=EDGE_CURVE('',#117,#110,#141,.T.);
#92=EDGE_CURVE('',#111,#116,#142,.T.);
#93=EDGE_CURVE('',#115,#112,#143,.T.);
#94=EDGE_CURVE('',#118,#119,#144,.T.);
#95=EDGE_CURVE('',#108,#119,#145,.T.);
#96=EDGE_CURVE('',#106,#118,#146,.T.);
#97=EDGE_CURVE('',#118,#120,#147,.T.);
#98=EDGE_CURVE('',#107,#120,#148,.T.);
#99=EDGE_CURVE('',#120,#121,#149,.T.);
#100=EDGE_CURVE('',#109,#121,#150,.T.);
#101=EDGE_CURVE('',#119,#121,#151,.T.);
#102=VERTEX_POINT('',#323);
#103=VERTEX_POINT('',#324);
#104=VERTEX_POINT('',#326);
#105=VERTEX_POINT('',#328);
#106=VERTEX_POINT('',#331);
#107=VERTEX_POINT('',#332);
#108=VERTEX_POINT('',#334);
#109=VERTEX_POINT('',#336);
#110=VERTEX_POINT('',#340);
#111=VERTEX_POINT('',#342);
#112=VERTEX_POINT('',#344);
#113=VERTEX_POINT('',#346);
#114=VERTEX_POINT('',#350);
#115=VERTEX_POINT('',#354);
#116=VERTEX_POINT('',#355);
#117=VERTEX_POINT('',#357);
#118=VERTEX_POINT('',#367);
#119=VERTEX_POINT('',#368);
#120=VERTEX_POINT('',#373);
#121=VERTEX_POINT('',#377);
#122=LINE('',#322,#152);
#123=LINE('',#325,#153);
#124=LINE('',#327,#154);
#125=LINE('',#329,#155);
#126=LINE('',#330,#156);
#127=LINE('',#333,#157);
#128=LINE('',#335,#158);
#129=LINE('',#337,#159);
#130=LINE('',#339,#160);
#131=LINE('',#341,#161);
#132=LINE('',#343,#162);
#133=LINE('',#345,#163);
#134=LINE('',#347,#164);
#135=LINE('',#349,#165);
#136=LINE('',#351,#166);
#137=LINE('',#353,#167);
#138=LINE('',#356,#168);
#139=LINE('',#358,#169);
#140=LINE('',#359,#170);
#141=LINE('',#361,#171);
#142=LINE('',#363,#172);
#143=LINE('',#364,#173);
#144=LINE('',#366,#174);
#145=LINE('',#369,#175);
#146=LINE('',#370,#176);
#147=LINE('',#372,#177);
#148=LINE('',#374,#178);
#149=LINE('',#376,#179);
#150=LINE('',#378,#180);
#151=LINE('',#380,#181);
#152=VECTOR('',#266,1.);
#153=VECTOR('',#267,1.);
#154=VECTOR('',#268,1.);
#155=VECTOR('',#269,1.);
#156=VECTOR('',#270,1.);
#157=VECTOR('',#271,1.);
#158=VECTOR('',#272,1.);
#159=VECTOR('',#273,1.);
#160=VECTOR('',#276,1.);
#161=VECTOR('',#277,1.);
#162=VECTOR('',#278,1.);
#163=VECTOR('',#279,1.);
#164=VECTOR('',#280,1.);
#165=VECTOR('',#283,1.);
#166=VECTOR('',#284,1.);
#167=VECTOR('',#287,1.);
#168=VECTOR('',#288,1.);
#169=VECTOR('',#289,1.);
#170=VECTOR('',#290,1.);
#171=VECTOR('',#293,1.);
#172=VECTOR('',#296,1.);
#173=VECTOR('',#297,1.);
#174=VECTOR('',#300,1.);
#175=VECTOR('',#301,1.);
#176=VECTOR('',#302,1.);
#177=VECTOR('',#305,1.);
#178=VECTOR('',#306,1.);
#179=VECTOR('',#309,1.);
#180=VECTOR('',#310,1.);
#181=VECTOR('',#313,1.);
#182=EDGE_LOOP('',(#12,#13,#14,#15));
#183=EDGE_LOOP('',(#16,#17,#18,#19));
#184=EDGE_LOOP('',(#20,#21,#22,#23,#24,#25));
#185=EDGE_LOOP('',(#26,#27,#28,#29));
#186=EDGE_LOOP('',(#30,#31,#32,#33,#34,#35));
#187=EDGE_LOOP('',(#36,#37,#38,#39));
#188=EDGE_LOOP('',(#40,#41,#42,#43));
#189=EDGE_LOOP('',(#44,#45,#46,#47));
#190=EDGE_LOOP('',(#48,#49,#50,#51));
#191=EDGE_LOOP('',(#52,#53,#54,#55));
#192=EDGE_LOOP('',(#56,#57,#58,#59));
#193=EDGE_LOOP('',(#60,#61,#62,#63));
#194=EDGE_LOOP('',(#64,#65,#66,#67));
#195=EDGE_LOOP('',(#68,#69,#70,#71));
#196=FACE_BOUND('',#182,.T.);
#197=FACE_BOUND('',#183,.T.);
#198=FACE_BOUND('',#184,.T.);
#199=FACE_BOUND('',#185,.T.);
#200=FACE_BOUND('',#186,.T.);
#201=FACE_BOUND('',#187,.T.);
#202=FACE_BOUND('',#188,.T.);
#203=FACE_BOUND('',#189,.T.);
#204=FACE_BOUND('',#190,.T.);
#205=FACE_BOUND('',#191,.T.);
#206=FACE_BOUND('',#192,.T.);
#207=FACE_BOUND('',#193,.T.);
#208=FACE_BOUND('',#194,.T.);
#209=FACE_BOUND('',#195,.T.);
#210=PLANE('',#249);
#211=PLANE('',#250);
#212=PLANE('',#251);
#213=PLANE('',#252);
#214=PLANE('',#253);
#215=PLANE('',#254);
#216=PLANE('',#255);
#217=PLANE('',#256);
#218=PLANE('',#257);
#219=PLANE('',#258);
#220=PLANE('',#259);
#221=PLANE('',#260);
#222=PLANE('',#261);
#223=ADVANCED_FACE('',(#196,#197),#210,.T.);
#224=ADVANCED_FACE('',(#198),#211,.T.);
#225=ADVANCED_FACE('',(#199),#212,.F.);
#226=ADVANCED_FACE('',(#200),#213,.F.);
#227=ADVANCED_FACE('',(#201),#214,.T.);
#228=ADVANCED_FACE('',(#202),#215,.F.);
#229=ADVANCED_FACE('',(#203),#216,.F.);
#230=ADVANCED_FACE('',(#204),#217,.T.);
#231=ADVANCED_FACE('',(#205),#218,.T.);
#232=ADVANCED_FACE('',(#206),#219,.F.);
#233=ADVANCED_FACE('',(#207),#220,.T.);
#234=ADVANCED_FACE('',(#208),#221,.T.);
#235=ADVANCED_FACE('',(#209),#222,.F.);
#236=CLOSED_SHELL('',(#223,#224,#225,#226,#227,#228,#229,#230,#231,#232,
#233,#234,#235));
#237=STYLED_ITEM('',(#238),#245);
#238=PRESENTATION_STYLE_ASSIGNMENT((#239));
#239=SURFACE_STYLE_USAGE(.BOTH.,#240);
#240=SURFACE_SIDE_STYLE('',(#241));
#241=SURFACE_STYLE_FILL_AREA(#242);
#242=FILL_AREA_STYLE('',(#243));
#243=FILL_AREA_STYLE_COLOUR('',#244);
#244=COLOUR_RGB('',0.615686274509804,0.811764705882353,0.929411764705882);
#245=MANIFOLD_SOLID_BREP('Part 1',#236);
#246=SHAPE_DEFINITION_REPRESENTATION(#390,#247);
#247=SHAPE_REPRESENTATION('Part 1',(#248),#385);
#248=AXIS2_PLACEMENT_3D('',#320,#262,#263);
#249=AXIS2_PLACEMENT_3D('',#321,#264,#265);
#250=AXIS2_PLACEMENT_3D('',#338,#274,#275);
#251=AXIS2_PLACEMENT_3D('',#348,#281,#282);
#252=AXIS2_PLACEMENT_3D('',#352,#285,#286);
#253=AXIS2_PLACEMENT_3D('',#360,#291,#292);
#254=AXIS2_PLACEMENT_3D('',#362,#294,#295);
#255=AXIS2_PLACEMENT_3D('',#365,#298,#299);
#256=AXIS2_PLACEMENT_3D('',#371,#303,#304);
#257=AXIS2_PLACEMENT_3D('',#375,#307,#308);
#258=AXIS2_PLACEMENT_3D('',#379,#311,#312);
#259=AXIS2_PLACEMENT_3D('',#381,#314,#315);
#260=AXIS2_PLACEMENT_3D('',#382,#316,#317);
#261=AXIS2_PLACEMENT_3D('',#383,#318,#319);
#262=DIRECTION('',(0.,0.,1.));
#263=DIRECTION('',(1.,0.,0.));
#264=DIRECTION('',(0.,0.,1.));
#265=DIRECTION('',(1.,0.,0.));
#266=DIRECTION('',(1.,0.,0.));
#267=DIRECTION('',(0.,-1.,0.));
#268=DIRECTION('',(1.,0.,0.));
#269=DIRECTION('',(0.,-1.,0.));
#270=DIRECTION('',(0.,-1.,0.));
#271=DIRECTION('',(1.,0.,0.));
#272=DIRECTION('',(0.,-1.,0.));
#273=DIRECTION('',(1.,0.,0.));
#274=DIRECTION('',(0.,1.,0.));
#275=DIRECTION('',(0.,0.,1.));
#276=DIRECTION('',(0.,0.,-1.));
#277=DIRECTION('',(-0.707106781186549,0.,-0.707106781186547));
#278=DIRECTION('',(1.,0.,0.));
#279=DIRECTION('',(0.707106781186548,0.,-0.707106781186548));
#280=DIRECTION('',(0.,0.,-1.));
#281=DIRECTION('',(1.,0.,0.));
#282=DIRECTION('',(0.,0.,-1.));
#283=DIRECTION('',(0.,-1.,0.));
#284=DIRECTION('',(0.,0.,-1.));
#285=DIRECTION('',(0.,1.,0.));
#286=DIRECTION('',(0.,0.,1.));
#287=DIRECTION('',(1.,0.,0.));
#288=DIRECTION('',(0.707106781186549,0.,0.707106781186547));
#289=DIRECTION('',(0.,0.,-1.));
#290=DIRECTION('',(-0.707106781186548,0.,0.707106781186548));
#291=DIRECTION('',(1.,0.,0.));
#292=DIRECTION('',(0.,0.,-1.));
#293=DIRECTION('',(0.,1.,0.));
#294=DIRECTION('',(0.,0.,1.));
#295=DIRECTION('',(1.,0.,0.));
#296=DIRECTION('',(0.,-1.,0.));
#297=DIRECTION('',(0.,1.,0.));
#298=DIRECTION('',(0.,1.,0.));
#299=DIRECTION('',(0.,0.,1.));
#300=DIRECTION('',(1.,0.,0.));
#301=DIRECTION('',(0.,0.,-1.));
#302=DIRECTION('',(0.,0.,-1.));
#303=DIRECTION('',(1.,0.,0.));
#304=DIRECTION('',(0.,0.,-1.));
#305=DIRECTION('',(0.,-1.,0.));
#306=DIRECTION('',(0.,0.,-1.));
#307=DIRECTION('',(0.,1.,0.));
#308=DIRECTION('',(0.,0.,1.));
#309=DIRECTION('',(1.,0.,0.));
#310=DIRECTION('',(0.,0.,-1.));
#311=DIRECTION('',(1.,0.,0.));
#312=DIRECTION('',(0.,0.,-1.));
#313=DIRECTION('',(0.,-1.,0.));
#314=DIRECTION('',(0.,0.,1.));
#315=DIRECTION('',(1.,0.,0.));
#316=DIRECTION('',(0.707106781186547,0.,-0.707106781186549));
#317=DIRECTION('',(0.,1.,0.));
#318=DIRECTION('',(0.707106781186548,0.,0.707106781186548));
#319=DIRECTION('',(0.,-1.,0.));
#320=CARTESIAN_POINT('',(0.,0.,0.));
#321=CARTESIAN_POINT('',(-0.0124706923961639,-0.000261581643619495,0.0127));
#322=CARTESIAN_POINT('',(-0.0124706923961639,0.0391084183563805,0.0127));
#323=CARTESIAN_POINT('',(-0.0518406923961639,0.0391084183563805,0.0127));
#324=CARTESIAN_POINT('',(0.026899307603836,0.0391084183563805,0.0127));
#325=CARTESIAN_POINT('',(-0.0518406923961639,-0.000261581643619502,0.0127));
#326=CARTESIAN_POINT('',(-0.0518406923961639,-0.0396315816436195,0.0127));
#327=CARTESIAN_POINT('',(-0.0124706923961639,-0.0396315816436195,0.0127));
#328=CARTESIAN_POINT('',(0.026899307603836,-0.0396315816436195,0.0127));
#329=CARTESIAN_POINT('',(0.026899307603836,-0.000261581643619502,0.0127));
#330=CARTESIAN_POINT('',(-0.0493006923961639,-0.000261581643619502,0.0127));
#331=CARTESIAN_POINT('',(-0.0493006923961639,0.0365684183563805,0.0127));
#332=CARTESIAN_POINT('',(-0.0493006923961639,-0.0370915816436195,0.0127));
#333=CARTESIAN_POINT('',(-0.0124706923961639,0.0365684183563805,0.0127));
#334=CARTESIAN_POINT('',(0.0243593076038361,0.0365684183563805,0.0127));
#335=CARTESIAN_POINT('',(0.0243593076038361,-0.000261581643619502,0.0127));
#336=CARTESIAN_POINT('',(0.0243593076038361,-0.0370915816436195,0.0127));
#337=CARTESIAN_POINT('',(-0.0124706923961639,-0.0370915816436195,0.0127));
#338=CARTESIAN_POINT('',(-0.0124706923961639,0.0391084183563805,0.0127));
#339=CARTESIAN_POINT('',(0.026899307603836,0.0391084183563805,0.0127));
#340=CARTESIAN_POINT('',(0.026899307603836,0.0391084183563805,0.00127));
#341=CARTESIAN_POINT('',(0.012929307603836,0.0391084183563805,-0.0127));
#342=CARTESIAN_POINT('',(0.0256293076038361,0.0391084183563805,0.));
#343=CARTESIAN_POINT('',(-0.0124706923961639,0.0391084183563805,0.));
#344=CARTESIAN_POINT('',(-0.0505706923961639,0.0391084183563805,0.));
#345=CARTESIAN_POINT('',(-0.037870692396164,0.0391084183563805,-0.0127));
#346=CARTESIAN_POINT('',(-0.0518406923961639,0.0391084183563805,0.00127));
#347=CARTESIAN_POINT('',(-0.0518406923961639,0.0391084183563805,0.0127));
#348=CARTESIAN_POINT('',(-0.0518406923961639,-0.000261581643619502,0.0127));
#349=CARTESIAN_POINT('',(-0.0518406923961639,-0.000261581643619502,0.00127));
#350=CARTESIAN_POINT('',(-0.0518406923961639,-0.0396315816436195,0.00127));
#351=CARTESIAN_POINT('',(-0.0518406923961639,-0.0396315816436195,0.0127));
#352=CARTESIAN_POINT('',(-0.0124706923961639,-0.0396315816436195,0.0127));
#353=CARTESIAN_POINT('',(-0.0124706923961639,-0.0396315816436195,0.));
#354=CARTESIAN_POINT('',(-0.0505706923961639,-0.0396315816436195,0.));
#355=CARTESIAN_POINT('',(0.0256293076038361,-0.0396315816436195,0.));
#356=CARTESIAN_POINT('',(0.0256293076038361,-0.0396315816436195,0.));
#357=CARTESIAN_POINT('',(0.026899307603836,-0.0396315816436195,0.00127));
#358=CARTESIAN_POINT('',(0.026899307603836,-0.0396315816436195,0.0127));
#359=CARTESIAN_POINT('',(-0.0518406923961639,-0.0396315816436195,0.00127));
#360=CARTESIAN_POINT('',(0.026899307603836,-0.000261581643619502,0.0127));
#361=CARTESIAN_POINT('',(0.026899307603836,0.0391084183563805,0.00127));
#362=CARTESIAN_POINT('',(-0.0124706923961639,-0.000261581643619495,0.));
#363=CARTESIAN_POINT('',(0.0256293076038361,-0.0396315816436195,0.));
#364=CARTESIAN_POINT('',(-0.0505706923961639,-0.000261581643619495,0.));
#365=CARTESIAN_POINT('',(-0.0124706923961639,0.0365684183563805,0.0127));
#366=CARTESIAN_POINT('',(-0.0124706923961639,0.0365684183563805,0.00254));
#367=CARTESIAN_POINT('',(-0.0493006923961639,0.0365684183563805,0.00254));
#368=CARTESIAN_POINT('',(0.0243593076038361,0.0365684183563805,0.00254));
#369=CARTESIAN_POINT('',(0.0243593076038361,0.0365684183563805,0.0127));
#370=CARTESIAN_POINT('',(-0.0493006923961639,0.0365684183563805,0.0127));
#371=CARTESIAN_POINT('',(-0.0493006923961639,-0.000261581643619502,0.0127));
#372=CARTESIAN_POINT('',(-0.0493006923961639,-0.000261581643619502,0.00254));
#373=CARTESIAN_POINT('',(-0.0493006923961639,-0.0370915816436195,0.00254));
#374=CARTESIAN_POINT('',(-0.0493006923961639,-0.0370915816436195,0.0127));
#375=CARTESIAN_POINT('',(-0.0124706923961639,-0.0370915816436195,0.0127));
#376=CARTESIAN_POINT('',(-0.0124706923961639,-0.0370915816436195,0.00254));
#377=CARTESIAN_POINT('',(0.0243593076038361,-0.0370915816436195,0.00254));
#378=CARTESIAN_POINT('',(0.0243593076038361,-0.0370915816436195,0.0127));
#379=CARTESIAN_POINT('',(0.0243593076038361,-0.000261581643619502,0.0127));
#380=CARTESIAN_POINT('',(0.0243593076038361,-0.000261581643619502,0.00254));
#381=CARTESIAN_POINT('',(-0.0124706923961639,-0.000261581643619495,0.00254));
#382=CARTESIAN_POINT('',(0.0256293076038361,-0.000261581643619495,0.));
#383=CARTESIAN_POINT('',(-0.0518406923961639,-0.000261581643619502,0.00127));
#384=MECHANICAL_DESIGN_GEOMETRIC_PRESENTATION_REPRESENTATION('',(#237),
#385);
#385=(
GEOMETRIC_REPRESENTATION_CONTEXT(3)
GLOBAL_UNCERTAINTY_ASSIGNED_CONTEXT((#386))
GLOBAL_UNIT_ASSIGNED_CONTEXT((#389,#388,#387))
REPRESENTATION_CONTEXT('Part 1','TOP_LEVEL_ASSEMBLY_PART')
);
#386=UNCERTAINTY_MEASURE_WITH_UNIT(LENGTH_MEASURE(1.E-8),#389,
'DISTANCE_ACCURACY_VALUE','Maximum Tolerance applied to model');
#387=(
NAMED_UNIT(*)
SI_UNIT($,.STERADIAN.)
SOLID_ANGLE_UNIT()
);
#388=(
NAMED_UNIT(*)
PLANE_ANGLE_UNIT()
SI_UNIT($,.RADIAN.)
);
#389=(
LENGTH_UNIT()
NAMED_UNIT(*)
SI_UNIT($,.METRE.)
);
#390=PRODUCT_DEFINITION_SHAPE('','',#391);
#391=PRODUCT_DEFINITION('','',#393,#392);
#392=PRODUCT_DEFINITION_CONTEXT('',#399,'design');
#393=PRODUCT_DEFINITION_FORMATION_WITH_SPECIFIED_SOURCE('','',#395,
 .NOT_KNOWN.);
#394=PRODUCT_RELATED_PRODUCT_CATEGORY('','',(#395));
#395=PRODUCT('Part 1','Part 1','Part 1',(#397));
#396=PRODUCT_CATEGORY('','');
#397=PRODUCT_CONTEXT('',#399,'mechanical');
#398=APPLICATION_PROTOCOL_DEFINITION('international standard',
'ap242_managed_model_based_3d_engineering',2020,#399);
#399=APPLICATION_CONTEXT('managed model based 3d engineering');
ENDSEC;
END-ISO-10303-21;
