ISO-10303-21;
HEADER;
/* Generated by software containing ST-Developer
 * from STEP Tools, Inc. (www.steptools.com) 
 */
/* OPTION: using custom renumber hook */

FILE_DESCRIPTION(
/* description */ ('STEP AP242 Edition 2',
'CAx-IF Rec.Pracs.---Representation and Presentation of Product Manufa
cturing Information (PMI)---4.0---2014-10-13',
'CAx-IF Rec.Pracs.---3D Tessellated Geometry---0.4---2014-09-14','2;1',
'CAx-IF Rec.Pracs.---User Defined Attributes---1.5---2016-08-15'),
/* implementation_level */ '2;1');

FILE_NAME(
/* name */ '696914f299ff06cf88e0995b',
/* time_stamp */ '2026-01-15T16:25:24Z',
/* author */ (''),
/* organization */ (''),
/* preprocessor_version */ 'ST-DEVELOPER v20',
/* originating_system */ 'ONSHAPE BY PTC INC, 1.209',
/* authorisation */ '  ');

FILE_SCHEMA (('AP242_MANAGED_MODEL_BASED_3D_ENGINEERING_MIM_LF { 1 0 10303 442 3 1 4 }'));
ENDSEC;

DATA;
#10=SHAPE_REPRESENTATION_RELATIONSHIP('','',#241,#11);
#11=ADVANCED_BREP_SHAPE_REPRESENTATION('',(#239),#375);
#12=ORIENTED_EDGE('',*,*,#72,.T.);
#13=ORIENTED_EDGE('',*,*,#73,.T.);
#14=ORIENTED_EDGE('',*,*,#74,.F.);
#15=ORIENTED_EDGE('',*,*,#75,.F.);
#16=ORIENTED_EDGE('',*,*,#76,.F.);
#17=ORIENTED_EDGE('',*,*,#77,.T.);
#18=ORIENTED_EDGE('',*,*,#78,.T.);
#19=ORIENTED_EDGE('',*,*,#79,.F.);
#20=ORIENTED_EDGE('',*,*,#80,.F.);
#21=ORIENTED_EDGE('',*,*,#81,.F.);
#22=ORIENTED_EDGE('',*,*,#75,.T.);
#23=ORIENTED_EDGE('',*,*,#82,.T.);
#24=ORIENTED_EDGE('',*,*,#83,.T.);
#25=ORIENTED_EDGE('',*,*,#77,.F.);
#26=ORIENTED_EDGE('',*,*,#84,.F.);
#27=ORIENTED_EDGE('',*,*,#85,.F.);
#28=ORIENTED_EDGE('',*,*,#86,.F.);
#29=ORIENTED_EDGE('',*,*,#87,.F.);
#30=ORIENTED_EDGE('',*,*,#88,.F.);
#31=ORIENTED_EDGE('',*,*,#89,.T.);
#32=ORIENTED_EDGE('',*,*,#72,.F.);
#33=ORIENTED_EDGE('',*,*,#81,.T.);
#34=ORIENTED_EDGE('',*,*,#90,.F.);
#35=ORIENTED_EDGE('',*,*,#82,.F.);
#36=ORIENTED_EDGE('',*,*,#74,.T.);
#37=ORIENTED_EDGE('',*,*,#91,.F.);
#38=ORIENTED_EDGE('',*,*,#92,.T.);
#39=ORIENTED_EDGE('',*,*,#93,.T.);
#40=ORIENTED_EDGE('',*,*,#94,.T.);
#41=ORIENTED_EDGE('',*,*,#95,.T.);
#42=ORIENTED_EDGE('',*,*,#96,.T.);
#43=ORIENTED_EDGE('',*,*,#79,.T.);
#44=ORIENTED_EDGE('',*,*,#80,.T.);
#45=ORIENTED_EDGE('',*,*,#90,.T.);
#46=ORIENTED_EDGE('',*,*,#78,.F.);
#47=ORIENTED_EDGE('',*,*,#83,.F.);
#48=ORIENTED_EDGE('',*,*,#76,.T.);
#49=ORIENTED_EDGE('',*,*,#96,.F.);
#50=ORIENTED_EDGE('',*,*,#97,.F.);
#51=ORIENTED_EDGE('',*,*,#84,.T.);
#52=ORIENTED_EDGE('',*,*,#98,.F.);
#53=ORIENTED_EDGE('',*,*,#85,.T.);
#54=ORIENTED_EDGE('',*,*,#97,.T.);
#55=ORIENTED_EDGE('',*,*,#95,.F.);
#56=ORIENTED_EDGE('',*,*,#73,.F.);
#57=ORIENTED_EDGE('',*,*,#89,.F.);
#58=ORIENTED_EDGE('',*,*,#99,.T.);
#59=ORIENTED_EDGE('',*,*,#91,.T.);
#60=ORIENTED_EDGE('',*,*,#99,.F.);
#61=ORIENTED_EDGE('',*,*,#88,.T.);
#62=ORIENTED_EDGE('',*,*,#100,.T.);
#63=ORIENTED_EDGE('',*,*,#92,.F.);
#64=ORIENTED_EDGE('',*,*,#98,.T.);
#65=ORIENTED_EDGE('',*,*,#94,.F.);
#66=ORIENTED_EDGE('',*,*,#101,.F.);
#67=ORIENTED_EDGE('',*,*,#86,.T.);
#68=ORIENTED_EDGE('',*,*,#87,.T.);
#69=ORIENTED_EDGE('',*,*,#101,.T.);
#70=ORIENTED_EDGE('',*,*,#93,.F.);
#71=ORIENTED_EDGE('',*,*,#100,.F.);
#72=EDGE_CURVE('',#102,#103,#122,.T.);
#73=EDGE_CURVE('',#103,#104,#123,.T.);
#74=EDGE_CURVE('',#105,#104,#124,.T.);
#75=EDGE_CURVE('',#102,#105,#125,.T.);
#76=EDGE_CURVE('',#106,#107,#126,.T.);
#77=EDGE_CURVE('',#106,#108,#127,.T.);
#78=EDGE_CURVE('',#108,#109,#128,.T.);
#79=EDGE_CURVE('',#107,#109,#129,.T.);
#80=EDGE_CURVE('',#110,#111,#130,.T.);
#81=EDGE_CURVE('',#102,#110,#131,.T.);
#82=EDGE_CURVE('',#105,#111,#132,.T.);
#83=EDGE_CURVE('',#110,#108,#133,.T.);
#84=EDGE_CURVE('',#112,#106,#134,.T.);
#85=EDGE_CURVE('',#113,#112,#135,.T.);
#86=EDGE_CURVE('',#114,#113,#136,.T.);
#87=EDGE_CURVE('',#115,#114,#137,.T.);
#88=EDGE_CURVE('',#116,#115,#138,.T.);
#89=EDGE_CURVE('',#116,#103,#139,.T.);
#90=EDGE_CURVE('',#111,#109,#140,.T.);
#91=EDGE_CURVE('',#117,#104,#141,.T.);
#92=EDGE_CURVE('',#117,#118,#142,.T.);
#93=EDGE_CURVE('',#118,#119,#143,.T.);
#94=EDGE_CURVE('',#119,#120,#144,.T.);
#95=EDGE_CURVE('',#120,#121,#145,.T.);
#96=EDGE_CURVE('',#121,#107,#146,.T.);
#97=EDGE_CURVE('',#112,#121,#147,.T.);
#98=EDGE_CURVE('',#113,#120,#148,.T.);
#99=EDGE_CURVE('',#116,#117,#149,.T.);
#100=EDGE_CURVE('',#115,#118,#150,.T.);
#101=EDGE_CURVE('',#114,#119,#151,.T.);
#102=VERTEX_POINT('',#314);
#103=VERTEX_POINT('',#315);
#104=VERTEX_POINT('',#317);
#105=VERTEX_POINT('',#319);
#106=VERTEX_POINT('',#323);
#107=VERTEX_POINT('',#324);
#108=VERTEX_POINT('',#326);
#109=VERTEX_POINT('',#328);
#110=VERTEX_POINT('',#332);
#111=VERTEX_POINT('',#333);
#112=VERTEX_POINT('',#339);
#113=VERTEX_POINT('',#341);
#114=VERTEX_POINT('',#343);
#115=VERTEX_POINT('',#345);
#116=VERTEX_POINT('',#347);
#117=VERTEX_POINT('',#352);
#118=VERTEX_POINT('',#354);
#119=VERTEX_POINT('',#356);
#120=VERTEX_POINT('',#358);
#121=VERTEX_POINT('',#360);
#122=LINE('',#313,#152);
#123=LINE('',#316,#153);
#124=LINE('',#318,#154);
#125=LINE('',#320,#155);
#126=LINE('',#322,#156);
#127=LINE('',#325,#157);
#128=LINE('',#327,#158);
#129=LINE('',#329,#159);
#130=LINE('',#331,#160);
#131=LINE('',#334,#161);
#132=LINE('',#335,#162);
#133=LINE('',#337,#163);
#134=LINE('',#338,#164);
#135=LINE('',#340,#165);
#136=LINE('',#342,#166);
#137=LINE('',#344,#167);
#138=LINE('',#346,#168);
#139=LINE('',#348,#169);
#140=LINE('',#350,#170);
#141=LINE('',#351,#171);
#142=LINE('',#353,#172);
#143=LINE('',#355,#173);
#144=LINE('',#357,#174);
#145=LINE('',#359,#175);
#146=LINE('',#361,#176);
#147=LINE('',#364,#177);
#148=LINE('',#366,#178);
#149=LINE('',#368,#179);
#150=LINE('',#370,#180);
#151=LINE('',#372,#181);
#152=VECTOR('',#259,1.);
#153=VECTOR('',#260,1.);
#154=VECTOR('',#261,1.);
#155=VECTOR('',#262,1.);
#156=VECTOR('',#265,1.);
#157=VECTOR('',#266,1.);
#158=VECTOR('',#267,1.);
#159=VECTOR('',#268,1.);
#160=VECTOR('',#271,1.);
#161=VECTOR('',#272,1.);
#162=VECTOR('',#273,1.);
#163=VECTOR('',#276,1.);
#164=VECTOR('',#277,1.);
#165=VECTOR('',#278,1.);
#166=VECTOR('',#279,1.);
#167=VECTOR('',#280,1.);
#168=VECTOR('',#281,1.);
#169=VECTOR('',#282,1.);
#170=VECTOR('',#285,1.);
#171=VECTOR('',#286,1.);
#172=VECTOR('',#287,1.);
#173=VECTOR('',#288,1.);
#174=VECTOR('',#289,1.);
#175=VECTOR('',#290,1.);
#176=VECTOR('',#291,1.);
#177=VECTOR('',#296,1.);
#178=VECTOR('',#299,1.);
#179=VECTOR('',#302,1.);
#180=VECTOR('',#305,1.);
#181=VECTOR('',#308,1.);
#182=EDGE_LOOP('',(#12,#13,#14,#15));
#183=EDGE_LOOP('',(#16,#17,#18,#19));
#184=EDGE_LOOP('',(#20,#21,#22,#23));
#185=EDGE_LOOP('',(#24,#25,#26,#27,#28,#29,#30,#31,#32,#33));
#186=EDGE_LOOP('',(#34,#35,#36,#37,#38,#39,#40,#41,#42,#43));
#187=EDGE_LOOP('',(#44,#45,#46,#47));
#188=EDGE_LOOP('',(#48,#49,#50,#51));
#189=EDGE_LOOP('',(#52,#53,#54,#55));
#190=EDGE_LOOP('',(#56,#57,#58,#59));
#191=EDGE_LOOP('',(#60,#61,#62,#63));
#192=EDGE_LOOP('',(#64,#65,#66,#67));
#193=EDGE_LOOP('',(#68,#69,#70,#71));
#194=FACE_BOUND('',#182,.T.);
#195=FACE_BOUND('',#183,.T.);
#196=FACE_BOUND('',#184,.T.);
#197=FACE_BOUND('',#185,.T.);
#198=FACE_BOUND('',#186,.T.);
#199=FACE_BOUND('',#187,.T.);
#200=FACE_BOUND('',#188,.T.);
#201=FACE_BOUND('',#189,.T.);
#202=FACE_BOUND('',#190,.T.);
#203=FACE_BOUND('',#191,.T.);
#204=FACE_BOUND('',#192,.T.);
#205=FACE_BOUND('',#193,.T.);
#206=PLANE('',#243);
#207=PLANE('',#244);
#208=PLANE('',#245);
#209=PLANE('',#246);
#210=PLANE('',#247);
#211=PLANE('',#248);
#212=PLANE('',#249);
#213=PLANE('',#250);
#214=PLANE('',#251);
#215=PLANE('',#252);
#216=PLANE('',#253);
#217=PLANE('',#254);
#218=ADVANCED_FACE('',(#194),#206,.T.);
#219=ADVANCED_FACE('',(#195),#207,.F.);
#220=ADVANCED_FACE('',(#196),#208,.T.);
#221=ADVANCED_FACE('',(#197),#209,.F.);
#222=ADVANCED_FACE('',(#198),#210,.T.);
#223=ADVANCED_FACE('',(#199),#211,.F.);
#224=ADVANCED_FACE('',(#200),#212,.F.);
#225=ADVANCED_FACE('',(#201),#213,.T.);
#226=ADVANCED_FACE('',(#202),#214,.T.);
#227=ADVANCED_FACE('',(#203),#215,.T.);
#228=ADVANCED_FACE('',(#204),#216,.F.);
#229=ADVANCED_FACE('',(#205),#217,.T.);
#230=CLOSED_SHELL('',(#218,#219,#220,#221,#222,#223,#224,#225,#226,#227,
#228,#229));
#231=STYLED_ITEM('',(#232),#239);
#232=PRESENTATION_STYLE_ASSIGNMENT((#233));
#233=SURFACE_STYLE_USAGE(.BOTH.,#234);
#234=SURFACE_SIDE_STYLE('',(#235));
#235=SURFACE_STYLE_FILL_AREA(#236);
#236=FILL_AREA_STYLE('',(#237));
#237=FILL_AREA_STYLE_COLOUR('',#238);
#238=COLOUR_RGB('',0.909803921568627,0.572549019607843,0.164705882352941);
#239=MANIFOLD_SOLID_BREP('Part 1',#230);
#240=SHAPE_DEFINITION_REPRESENTATION(#380,#241);
#241=SHAPE_REPRESENTATION('Part 1',(#242),#375);
#242=AXIS2_PLACEMENT_3D('',#311,#255,#256);
#243=AXIS2_PLACEMENT_3D('',#312,#257,#258);
#244=AXIS2_PLACEMENT_3D('',#321,#263,#264);
#245=AXIS2_PLACEMENT_3D('',#330,#269,#270);
#246=AXIS2_PLACEMENT_3D('',#336,#274,#275);
#247=AXIS2_PLACEMENT_3D('',#349,#283,#284);
#248=AXIS2_PLACEMENT_3D('',#362,#292,#293);
#249=AXIS2_PLACEMENT_3D('',#363,#294,#295);
#250=AXIS2_PLACEMENT_3D('',#365,#297,#298);
#251=AXIS2_PLACEMENT_3D('',#367,#300,#301);
#252=AXIS2_PLACEMENT_3D('',#369,#303,#304);
#253=AXIS2_PLACEMENT_3D('',#371,#306,#307);
#254=AXIS2_PLACEMENT_3D('',#373,#309,#310);
#255=DIRECTION('',(0.,0.,1.));
#256=DIRECTION('',(1.,0.,0.));
#257=DIRECTION('',(0.,0.,1.));
#258=DIRECTION('',(1.,0.,0.));
#259=DIRECTION('',(0.,-1.,0.));
#260=DIRECTION('',(1.,0.,0.));
#261=DIRECTION('',(0.,-1.,0.));
#262=DIRECTION('',(1.,0.,0.));
#263=DIRECTION('',(0.,1.,0.));
#264=DIRECTION('',(0.,0.,1.));
#265=DIRECTION('',(1.,0.,3.64246399155235E-16));
#266=DIRECTION('',(0.,0.,-1.));
#267=DIRECTION('',(1.,0.,0.));
#268=DIRECTION('',(0.,0.,-1.));
#269=DIRECTION('',(0.,1.,0.));
#270=DIRECTION('',(0.,0.,1.));
#271=DIRECTION('',(1.,0.,0.));
#272=DIRECTION('',(0.,0.,-1.));
#273=DIRECTION('',(0.,0.,-1.));
#274=DIRECTION('',(1.,0.,0.));
#275=DIRECTION('',(0.,0.,-1.));
#276=DIRECTION('',(0.,-1.,0.));
#277=DIRECTION('',(0.,1.,0.));
#278=DIRECTION('',(0.,0.,-1.));
#279=DIRECTION('',(0.,1.,0.));
#280=DIRECTION('',(0.,0.,-1.));
#281=DIRECTION('',(0.,-1.,0.));
#282=DIRECTION('',(0.,0.,-1.));
#283=DIRECTION('',(1.,0.,0.));
#284=DIRECTION('',(0.,0.,-1.));
#285=DIRECTION('',(0.,-1.,0.));
#286=DIRECTION('',(0.,0.,-1.));
#287=DIRECTION('',(0.,-1.,0.));
#288=DIRECTION('',(0.,0.,-1.));
#289=DIRECTION('',(0.,1.,0.));
#290=DIRECTION('',(0.,0.,-1.));
#291=DIRECTION('',(0.,1.,0.));
#292=DIRECTION('',(0.,0.,1.));
#293=DIRECTION('',(1.,0.,0.));
#294=DIRECTION('',(-3.64246399155235E-16,0.,1.));
#295=DIRECTION('',(1.,0.,3.64246399155235E-16));
#296=DIRECTION('',(1.,0.,3.64246399155235E-16));
#297=DIRECTION('',(0.,-1.,0.));
#298=DIRECTION('',(1.,0.,0.));
#299=DIRECTION('',(1.,0.,3.64246399155235E-16));
#300=DIRECTION('',(0.,1.,0.));
#301=DIRECTION('',(0.,0.,1.));
#302=DIRECTION('',(1.,0.,0.));
#303=DIRECTION('',(0.,0.,1.));
#304=DIRECTION('',(1.,0.,0.));
#305=DIRECTION('',(1.,0.,0.));
#306=DIRECTION('',(-3.64246399155235E-16,0.,1.));
#307=DIRECTION('',(1.,0.,3.64246399155235E-16));
#308=DIRECTION('',(1.,0.,3.64246399155235E-16));
#309=DIRECTION('',(0.,-1.,0.));
#310=DIRECTION('',(1.,0.,0.));
#311=CARTESIAN_POINT('',(0.,0.,0.));
#312=CARTESIAN_POINT('',(0.009525,-0.009525,0.0381));
#313=CARTESIAN_POINT('',(0.,-0.009525,0.0381));
#314=CARTESIAN_POINT('',(0.,0.,0.0381));
#315=CARTESIAN_POINT('',(0.,-0.01905,0.0381));
#316=CARTESIAN_POINT('',(0.009525,-0.01905,0.0381));
#317=CARTESIAN_POINT('',(0.01905,-0.01905,0.0381));
#318=CARTESIAN_POINT('',(0.01905,-0.009525,0.0381));
#319=CARTESIAN_POINT('',(0.01905,0.,0.0381));
#320=CARTESIAN_POINT('',(0.009525,0.,0.0381));
#321=CARTESIAN_POINT('',(0.009525,-0.01905,0.0381));
#322=CARTESIAN_POINT('',(0.009525,-0.01905,0.01905));
#323=CARTESIAN_POINT('',(1.7347234759768E-18,-0.01905,0.01905));
#324=CARTESIAN_POINT('',(0.01905,-0.01905,0.01905));
#325=CARTESIAN_POINT('',(1.7347234759768E-18,-0.01905,0.0381));
#326=CARTESIAN_POINT('',(1.7347234759768E-18,-0.01905,0.));
#327=CARTESIAN_POINT('',(0.009525,-0.01905,0.));
#328=CARTESIAN_POINT('',(0.01905,-0.01905,0.));
#329=CARTESIAN_POINT('',(0.01905,-0.01905,0.0381));
#330=CARTESIAN_POINT('',(0.009525,0.,0.0381));
#331=CARTESIAN_POINT('',(0.009525,0.,0.));
#332=CARTESIAN_POINT('',(0.,0.,0.));
#333=CARTESIAN_POINT('',(0.01905,0.,0.));
#334=CARTESIAN_POINT('',(0.,0.,0.0381));
#335=CARTESIAN_POINT('',(0.01905,0.,0.0381));
#336=CARTESIAN_POINT('',(0.,-0.009525,0.0381));
#337=CARTESIAN_POINT('',(0.,-0.009525,0.));
#338=CARTESIAN_POINT('',(1.7347234759768E-18,-0.0381,0.01905));
#339=CARTESIAN_POINT('',(1.7347234759768E-18,-0.0381,0.01905));
#340=CARTESIAN_POINT('',(1.7347234759768E-18,-0.0381,0.0381));
#341=CARTESIAN_POINT('',(1.7347234759768E-18,-0.0381,0.0381));
#342=CARTESIAN_POINT('',(1.7347234759768E-18,-0.05715,0.0381));
#343=CARTESIAN_POINT('',(1.7347234759768E-18,-0.05715,0.0381));
#344=CARTESIAN_POINT('',(1.7347234759768E-18,-0.05715,0.0381));
#345=CARTESIAN_POINT('',(1.7347234759768E-18,-0.05715,0.05715));
#346=CARTESIAN_POINT('',(0.,-0.009525,0.05715));
#347=CARTESIAN_POINT('',(0.,-0.01905,0.05715));
#348=CARTESIAN_POINT('',(0.,-0.01905,0.05715));
#349=CARTESIAN_POINT('',(0.01905,-0.009525,0.0381));
#350=CARTESIAN_POINT('',(0.01905,-0.009525,0.));
#351=CARTESIAN_POINT('',(0.01905,-0.01905,0.05715));
#352=CARTESIAN_POINT('',(0.01905,-0.01905,0.05715));
#353=CARTESIAN_POINT('',(0.01905,-0.009525,0.05715));
#354=CARTESIAN_POINT('',(0.01905,-0.05715,0.05715));
#355=CARTESIAN_POINT('',(0.01905,-0.05715,0.0381));
#356=CARTESIAN_POINT('',(0.01905,-0.05715,0.0381));
#357=CARTESIAN_POINT('',(0.01905,-0.05715,0.0381));
#358=CARTESIAN_POINT('',(0.01905,-0.0381,0.0381));
#359=CARTESIAN_POINT('',(0.01905,-0.0381,0.0381));
#360=CARTESIAN_POINT('',(0.01905,-0.0381,0.01905));
#361=CARTESIAN_POINT('',(0.01905,-0.0381,0.01905));
#362=CARTESIAN_POINT('',(0.009525,-0.009525,0.));
#363=CARTESIAN_POINT('',(0.009525,-0.0381,0.01905));
#364=CARTESIAN_POINT('',(0.009525,-0.0381,0.01905));
#365=CARTESIAN_POINT('',(0.009525,-0.0381,0.01905));
#366=CARTESIAN_POINT('',(0.009525,-0.0381,0.0381));
#367=CARTESIAN_POINT('',(0.009525,-0.01905,0.05715));
#368=CARTESIAN_POINT('',(0.009525,-0.01905,0.05715));
#369=CARTESIAN_POINT('',(0.009525,-0.01905,0.05715));
#370=CARTESIAN_POINT('',(0.009525,-0.05715,0.05715));
#371=CARTESIAN_POINT('',(0.009525,-0.05715,0.0381));
#372=CARTESIAN_POINT('',(0.009525,-0.05715,0.0381));
#373=CARTESIAN_POINT('',(0.009525,-0.05715,0.0381));
#374=MECHANICAL_DESIGN_GEOMETRIC_PRESENTATION_REPRESENTATION('',(#231),
#375);
#375=(
GEOMETRIC_REPRESENTATION_CONTEXT(3)
GLOBAL_UNCERTAINTY_ASSIGNED_CONTEXT((#376))
GLOBAL_UNIT_ASSIGNED_CONTEXT((#379,#378,#377))
REPRESENTATION_CONTEXT('Part 1','TOP_LEVEL_ASSEMBLY_PART')
);
#376=UNCERTAINTY_MEASURE_WITH_UNIT(LENGTH_MEASURE(1.E-8),#379,
'DISTANCE_ACCURACY_VALUE','Maximum Tolerance applied to model');
#377=(
NAMED_UNIT(*)
SI_UNIT($,.STERADIAN.)
SOLID_ANGLE_UNIT()
);
#378=(
NAMED_UNIT(*)
PLANE_ANGLE_UNIT()
SI_UNIT($,.RADIAN.)
);
#379=(
LENGTH_UNIT()
NAMED_UNIT(*)
SI_UNIT($,.METRE.)
);
#380=PRODUCT_DEFINITION_SHAPE('','',#381);
#381=PRODUCT_DEFINITION('','',#383,#382);
#382=PRODUCT_DEFINITION_CONTEXT('',#389,'design');
#383=PRODUCT_DEFINITION_FORMATION_WITH_SPECIFIED_SOURCE('','',#385,
 .NOT_KNOWN.);
#384=PRODUCT_RELATED_PRODUCT_CATEGORY('','',(#385));
#385=PRODUCT('Part 1','Part 1','Part 1',(#387));
#386=PRODUCT_CATEGORY('','');
#387=PRODUCT_CONTEXT('',#389,'mechanical');
#388=APPLICATION_PROTOCOL_DEFINITION('international standard',
'ap242_managed_model_based_3d_engineering',2020,#389);
#389=APPLICATION_CONTEXT('managed model based 3d engineering');
ENDSEC;
END-ISO-10303-21;
