ISO-10303-21;
HEADER;
/* Generated by software containing ST-Developer
 * from STEP Tools, Inc. (www.steptools.com) 
 */
/* OPTION: using custom renumber hook */

FILE_DESCRIPTION(
/* description */ ('STEP AP242 Edition 2',
'CAx-IF Rec.Pracs.---Representation and Presentation of Product Manufa
cturing Information (PMI)---4.0---2014-10-13',
'CAx-IF Rec.Pracs.---3D Tessellated Geometry---0.4---2014-09-14','2;1',
'CAx-IF Rec.Pracs.---User Defined Attributes---1.5---2016-08-15'),
/* implementation_level */ '2;1');

FILE_NAME(
/* name */ '6969152d99ff06cf88e09a71',
/* time_stamp */ '2026-01-15T16:26:22Z',
/* author */ (''),
/* organization */ (''),
/* preprocessor_version */ 'ST-DEVELOPER v20',
/* originating_system */ 'ONSHAPE BY PTC INC, 1.209',
/* authorisation */ '  ');

FILE_SCHEMA (('AP242_MANAGED_MODEL_BASED_3D_ENGINEERING_MIM_LF { 1 0 10303 442 3 1 4 }'));
ENDSEC;

DATA;
#10=SHAPE_REPRESENTATION_RELATIONSHIP('','',#289,#11);
#11=ADVANCED_BREP_SHAPE_REPRESENTATION('',(#287),#453);
#12=ORIENTED_EDGE('',*,*,#84,.F.);
#13=ORIENTED_EDGE('',*,*,#85,.F.);
#14=ORIENTED_EDGE('',*,*,#86,.T.);
#15=ORIENTED_EDGE('',*,*,#87,.F.);
#16=ORIENTED_EDGE('',*,*,#88,.F.);
#17=ORIENTED_EDGE('',*,*,#89,.T.);
#18=ORIENTED_EDGE('',*,*,#90,.T.);
#19=ORIENTED_EDGE('',*,*,#91,.T.);
#20=ORIENTED_EDGE('',*,*,#92,.T.);
#21=ORIENTED_EDGE('',*,*,#93,.F.);
#22=ORIENTED_EDGE('',*,*,#94,.F.);
#23=ORIENTED_EDGE('',*,*,#85,.T.);
#24=ORIENTED_EDGE('',*,*,#95,.T.);
#25=ORIENTED_EDGE('',*,*,#96,.F.);
#26=ORIENTED_EDGE('',*,*,#97,.F.);
#27=ORIENTED_EDGE('',*,*,#93,.T.);
#28=ORIENTED_EDGE('',*,*,#98,.F.);
#29=ORIENTED_EDGE('',*,*,#91,.F.);
#30=ORIENTED_EDGE('',*,*,#99,.T.);
#31=ORIENTED_EDGE('',*,*,#96,.T.);
#32=ORIENTED_EDGE('',*,*,#84,.T.);
#33=ORIENTED_EDGE('',*,*,#98,.T.);
#34=ORIENTED_EDGE('',*,*,#95,.F.);
#35=ORIENTED_EDGE('',*,*,#92,.F.);
#36=ORIENTED_EDGE('',*,*,#86,.F.);
#37=ORIENTED_EDGE('',*,*,#94,.T.);
#38=ORIENTED_EDGE('',*,*,#100,.T.);
#39=ORIENTED_EDGE('',*,*,#101,.F.);
#40=ORIENTED_EDGE('',*,*,#102,.F.);
#41=ORIENTED_EDGE('',*,*,#97,.T.);
#42=ORIENTED_EDGE('',*,*,#103,.T.);
#43=ORIENTED_EDGE('',*,*,#104,.F.);
#44=ORIENTED_EDGE('',*,*,#100,.F.);
#45=ORIENTED_EDGE('',*,*,#105,.F.);
#46=ORIENTED_EDGE('',*,*,#106,.T.);
#47=ORIENTED_EDGE('',*,*,#107,.T.);
#48=ORIENTED_EDGE('',*,*,#102,.T.);
#49=ORIENTED_EDGE('',*,*,#108,.F.);
#50=ORIENTED_EDGE('',*,*,#109,.F.);
#51=ORIENTED_EDGE('',*,*,#105,.T.);
#52=ORIENTED_EDGE('',*,*,#104,.T.);
#53=ORIENTED_EDGE('',*,*,#110,.F.);
#54=ORIENTED_EDGE('',*,*,#111,.F.);
#55=ORIENTED_EDGE('',*,*,#108,.T.);
#56=ORIENTED_EDGE('',*,*,#103,.F.);
#57=ORIENTED_EDGE('',*,*,#112,.F.);
#58=ORIENTED_EDGE('',*,*,#113,.T.);
#59=ORIENTED_EDGE('',*,*,#110,.T.);
#60=ORIENTED_EDGE('',*,*,#114,.T.);
#61=ORIENTED_EDGE('',*,*,#115,.F.);
#62=ORIENTED_EDGE('',*,*,#116,.F.);
#63=ORIENTED_EDGE('',*,*,#112,.T.);
#64=ORIENTED_EDGE('',*,*,#117,.T.);
#65=ORIENTED_EDGE('',*,*,#89,.F.);
#66=ORIENTED_EDGE('',*,*,#118,.F.);
#67=ORIENTED_EDGE('',*,*,#115,.T.);
#68=ORIENTED_EDGE('',*,*,#101,.T.);
#69=ORIENTED_EDGE('',*,*,#107,.F.);
#70=ORIENTED_EDGE('',*,*,#119,.F.);
#71=ORIENTED_EDGE('',*,*,#87,.T.);
#72=ORIENTED_EDGE('',*,*,#106,.F.);
#73=ORIENTED_EDGE('',*,*,#109,.T.);
#74=ORIENTED_EDGE('',*,*,#111,.T.);
#75=ORIENTED_EDGE('',*,*,#113,.F.);
#76=ORIENTED_EDGE('',*,*,#116,.T.);
#77=ORIENTED_EDGE('',*,*,#118,.T.);
#78=ORIENTED_EDGE('',*,*,#88,.T.);
#79=ORIENTED_EDGE('',*,*,#119,.T.);
#80=ORIENTED_EDGE('',*,*,#99,.F.);
#81=ORIENTED_EDGE('',*,*,#90,.F.);
#82=ORIENTED_EDGE('',*,*,#117,.F.);
#83=ORIENTED_EDGE('',*,*,#114,.F.);
#84=EDGE_CURVE('',#120,#121,#142,.T.);
#85=EDGE_CURVE('',#122,#120,#143,.T.);
#86=EDGE_CURVE('',#122,#123,#144,.T.);
#87=EDGE_CURVE('',#124,#123,#145,.T.);
#88=EDGE_CURVE('',#125,#124,#146,.T.);
#89=EDGE_CURVE('',#125,#126,#147,.T.);
#90=EDGE_CURVE('',#126,#127,#148,.T.);
#91=EDGE_CURVE('',#127,#121,#149,.T.);
#92=EDGE_CURVE('',#120,#128,#150,.T.);
#93=EDGE_CURVE('',#129,#128,#151,.T.);
#94=EDGE_CURVE('',#122,#129,#152,.T.);
#95=EDGE_CURVE('',#128,#130,#153,.T.);
#96=EDGE_CURVE('',#131,#130,#154,.T.);
#97=EDGE_CURVE('',#129,#131,#155,.T.);
#98=EDGE_CURVE('',#121,#130,#156,.T.);
#99=EDGE_CURVE('',#127,#131,#157,.T.);
#100=EDGE_CURVE('',#129,#132,#158,.T.);
#101=EDGE_CURVE('',#123,#132,#159,.T.);
#102=EDGE_CURVE('',#129,#133,#160,.T.);
#103=EDGE_CURVE('',#131,#134,#161,.T.);
#104=EDGE_CURVE('',#133,#134,#162,.T.);
#105=EDGE_CURVE('',#135,#129,#163,.T.);
#106=EDGE_CURVE('',#135,#136,#164,.T.);
#107=EDGE_CURVE('',#136,#132,#165,.T.);
#108=EDGE_CURVE('',#137,#133,#166,.T.);
#109=EDGE_CURVE('',#135,#137,#167,.T.);
#110=EDGE_CURVE('',#138,#134,#168,.T.);
#111=EDGE_CURVE('',#137,#138,#169,.T.);
#112=EDGE_CURVE('',#139,#131,#170,.T.);
#113=EDGE_CURVE('',#139,#138,#171,.T.);
#114=EDGE_CURVE('',#131,#140,#172,.T.);
#115=EDGE_CURVE('',#141,#140,#173,.T.);
#116=EDGE_CURVE('',#139,#141,#174,.T.);
#117=EDGE_CURVE('',#140,#126,#175,.T.);
#118=EDGE_CURVE('',#141,#125,#176,.T.);
#119=EDGE_CURVE('',#124,#136,#177,.T.);
#120=VERTEX_POINT('',#380);
#121=VERTEX_POINT('',#381);
#122=VERTEX_POINT('',#383);
#123=VERTEX_POINT('',#385);
#124=VERTEX_POINT('',#387);
#125=VERTEX_POINT('',#389);
#126=VERTEX_POINT('',#391);
#127=VERTEX_POINT('',#393);
#128=VERTEX_POINT('',#397);
#129=VERTEX_POINT('',#399);
#130=VERTEX_POINT('',#403);
#131=VERTEX_POINT('',#405);
#132=VERTEX_POINT('',#413);
#133=VERTEX_POINT('',#417);
#134=VERTEX_POINT('',#419);
#135=VERTEX_POINT('',#423);
#136=VERTEX_POINT('',#425);
#137=VERTEX_POINT('',#429);
#138=VERTEX_POINT('',#433);
#139=VERTEX_POINT('',#437);
#140=VERTEX_POINT('',#441);
#141=VERTEX_POINT('',#443);
#142=LINE('',#379,#178);
#143=LINE('',#382,#179);
#144=LINE('',#384,#180);
#145=LINE('',#386,#181);
#146=LINE('',#388,#182);
#147=LINE('',#390,#183);
#148=LINE('',#392,#184);
#149=LINE('',#394,#185);
#150=LINE('',#396,#186);
#151=LINE('',#398,#187);
#152=LINE('',#400,#188);
#153=LINE('',#402,#189);
#154=LINE('',#404,#190);
#155=LINE('',#406,#191);
#156=LINE('',#408,#192);
#157=LINE('',#409,#193);
#158=LINE('',#412,#194);
#159=LINE('',#414,#195);
#160=LINE('',#416,#196);
#161=LINE('',#418,#197);
#162=LINE('',#420,#198);
#163=LINE('',#422,#199);
#164=LINE('',#424,#200);
#165=LINE('',#426,#201);
#166=LINE('',#428,#202);
#167=LINE('',#430,#203);
#168=LINE('',#432,#204);
#169=LINE('',#434,#205);
#170=LINE('',#436,#206);
#171=LINE('',#438,#207);
#172=LINE('',#440,#208);
#173=LINE('',#442,#209);
#174=LINE('',#444,#210);
#175=LINE('',#446,#211);
#176=LINE('',#447,#212);
#177=LINE('',#449,#213);
#178=VECTOR('',#311,1.);
#179=VECTOR('',#312,1.);
#180=VECTOR('',#313,1.);
#181=VECTOR('',#314,1.);
#182=VECTOR('',#315,1.);
#183=VECTOR('',#316,1.);
#184=VECTOR('',#317,1.);
#185=VECTOR('',#318,1.);
#186=VECTOR('',#321,1.);
#187=VECTOR('',#322,1.);
#188=VECTOR('',#323,1.);
#189=VECTOR('',#326,1.);
#190=VECTOR('',#327,1.);
#191=VECTOR('',#328,1.);
#192=VECTOR('',#331,1.);
#193=VECTOR('',#332,1.);
#194=VECTOR('',#337,1.);
#195=VECTOR('',#338,1.);
#196=VECTOR('',#341,1.);
#197=VECTOR('',#342,1.);
#198=VECTOR('',#343,1.);
#199=VECTOR('',#346,1.);
#200=VECTOR('',#347,1.);
#201=VECTOR('',#348,1.);
#202=VECTOR('',#351,1.);
#203=VECTOR('',#352,1.);
#204=VECTOR('',#355,1.);
#205=VECTOR('',#356,1.);
#206=VECTOR('',#359,1.);
#207=VECTOR('',#360,1.);
#208=VECTOR('',#363,1.);
#209=VECTOR('',#364,1.);
#210=VECTOR('',#365,1.);
#211=VECTOR('',#368,1.);
#212=VECTOR('',#369,1.);
#213=VECTOR('',#372,1.);
#214=EDGE_LOOP('',(#12,#13,#14,#15,#16,#17,#18,#19));
#215=EDGE_LOOP('',(#20,#21,#22,#23));
#216=EDGE_LOOP('',(#24,#25,#26,#27));
#217=EDGE_LOOP('',(#28,#29,#30,#31));
#218=EDGE_LOOP('',(#32,#33,#34,#35));
#219=EDGE_LOOP('',(#36,#37,#38,#39));
#220=EDGE_LOOP('',(#40,#41,#42,#43));
#221=EDGE_LOOP('',(#44,#45,#46,#47));
#222=EDGE_LOOP('',(#48,#49,#50,#51));
#223=EDGE_LOOP('',(#52,#53,#54,#55));
#224=EDGE_LOOP('',(#56,#57,#58,#59));
#225=EDGE_LOOP('',(#60,#61,#62,#63));
#226=EDGE_LOOP('',(#64,#65,#66,#67));
#227=EDGE_LOOP('',(#68,#69,#70,#71));
#228=EDGE_LOOP('',(#72,#73,#74,#75,#76,#77,#78,#79));
#229=EDGE_LOOP('',(#80,#81,#82,#83));
#230=FACE_BOUND('',#214,.T.);
#231=FACE_BOUND('',#215,.T.);
#232=FACE_BOUND('',#216,.T.);
#233=FACE_BOUND('',#217,.T.);
#234=FACE_BOUND('',#218,.T.);
#235=FACE_BOUND('',#219,.T.);
#236=FACE_BOUND('',#220,.T.);
#237=FACE_BOUND('',#221,.T.);
#238=FACE_BOUND('',#222,.T.);
#239=FACE_BOUND('',#223,.T.);
#240=FACE_BOUND('',#224,.T.);
#241=FACE_BOUND('',#225,.T.);
#242=FACE_BOUND('',#226,.T.);
#243=FACE_BOUND('',#227,.T.);
#244=FACE_BOUND('',#228,.T.);
#245=FACE_BOUND('',#229,.T.);
#246=PLANE('',#291);
#247=PLANE('',#292);
#248=PLANE('',#293);
#249=PLANE('',#294);
#250=PLANE('',#295);
#251=PLANE('',#296);
#252=PLANE('',#297);
#253=PLANE('',#298);
#254=PLANE('',#299);
#255=PLANE('',#300);
#256=PLANE('',#301);
#257=PLANE('',#302);
#258=PLANE('',#303);
#259=PLANE('',#304);
#260=PLANE('',#305);
#261=PLANE('',#306);
#262=ADVANCED_FACE('',(#230),#246,.T.);
#263=ADVANCED_FACE('',(#231),#247,.F.);
#264=ADVANCED_FACE('',(#232),#248,.F.);
#265=ADVANCED_FACE('',(#233),#249,.T.);
#266=ADVANCED_FACE('',(#234),#250,.F.);
#267=ADVANCED_FACE('',(#235),#251,.F.);
#268=ADVANCED_FACE('',(#236),#252,.F.);
#269=ADVANCED_FACE('',(#237),#253,.T.);
#270=ADVANCED_FACE('',(#238),#254,.F.);
#271=ADVANCED_FACE('',(#239),#255,.F.);
#272=ADVANCED_FACE('',(#240),#256,.T.);
#273=ADVANCED_FACE('',(#241),#257,.F.);
#274=ADVANCED_FACE('',(#242),#258,.F.);
#275=ADVANCED_FACE('',(#243),#259,.F.);
#276=ADVANCED_FACE('',(#244),#260,.T.);
#277=ADVANCED_FACE('',(#245),#261,.F.);
#278=CLOSED_SHELL('',(#262,#263,#264,#265,#266,#267,#268,#269,#270,#271,
#272,#273,#274,#275,#276,#277));
#279=STYLED_ITEM('',(#280),#287);
#280=PRESENTATION_STYLE_ASSIGNMENT((#281));
#281=SURFACE_STYLE_USAGE(.BOTH.,#282);
#282=SURFACE_SIDE_STYLE('',(#283));
#283=SURFACE_STYLE_FILL_AREA(#284);
#284=FILL_AREA_STYLE('',(#285));
#285=FILL_AREA_STYLE_COLOUR('',#286);
#286=COLOUR_RGB('',0.372549019607843,0.654901960784314,0.23921568627451);
#287=MANIFOLD_SOLID_BREP('Part 1',#278);
#288=SHAPE_DEFINITION_REPRESENTATION(#458,#289);
#289=SHAPE_REPRESENTATION('Part 1',(#290),#453);
#290=AXIS2_PLACEMENT_3D('',#377,#307,#308);
#291=AXIS2_PLACEMENT_3D('',#378,#309,#310);
#292=AXIS2_PLACEMENT_3D('',#395,#319,#320);
#293=AXIS2_PLACEMENT_3D('',#401,#324,#325);
#294=AXIS2_PLACEMENT_3D('',#407,#329,#330);
#295=AXIS2_PLACEMENT_3D('',#410,#333,#334);
#296=AXIS2_PLACEMENT_3D('',#411,#335,#336);
#297=AXIS2_PLACEMENT_3D('',#415,#339,#340);
#298=AXIS2_PLACEMENT_3D('',#421,#344,#345);
#299=AXIS2_PLACEMENT_3D('',#427,#349,#350);
#300=AXIS2_PLACEMENT_3D('',#431,#353,#354);
#301=AXIS2_PLACEMENT_3D('',#435,#357,#358);
#302=AXIS2_PLACEMENT_3D('',#439,#361,#362);
#303=AXIS2_PLACEMENT_3D('',#445,#366,#367);
#304=AXIS2_PLACEMENT_3D('',#448,#370,#371);
#305=AXIS2_PLACEMENT_3D('',#450,#373,#374);
#306=AXIS2_PLACEMENT_3D('',#451,#375,#376);
#307=DIRECTION('',(0.,0.,1.));
#308=DIRECTION('',(1.,0.,0.));
#309=DIRECTION('',(0.,1.,0.));
#310=DIRECTION('',(0.,0.,1.));
#311=DIRECTION('',(1.,0.,0.));
#312=DIRECTION('',(0.,0.,-1.));
#313=DIRECTION('',(-1.,0.,0.));
#314=DIRECTION('',(0.,0.,-1.));
#315=DIRECTION('',(-1.,0.,0.));
#316=DIRECTION('',(0.,0.,-1.));
#317=DIRECTION('',(-1.,0.,0.));
#318=DIRECTION('',(0.,0.,-1.));
#319=DIRECTION('',(1.,0.,0.));
#320=DIRECTION('',(0.,0.,-1.));
#321=DIRECTION('',(0.,-1.,0.));
#322=DIRECTION('',(0.,0.,-1.));
#323=DIRECTION('',(0.,-1.,0.));
#324=DIRECTION('',(0.,1.,0.));
#325=DIRECTION('',(0.,0.,1.));
#326=DIRECTION('',(1.,0.,0.));
#327=DIRECTION('',(0.,0.,-1.));
#328=DIRECTION('',(1.,0.,0.));
#329=DIRECTION('',(1.,0.,0.));
#330=DIRECTION('',(0.,0.,-1.));
#331=DIRECTION('',(0.,-1.,0.));
#332=DIRECTION('',(0.,-1.,0.));
#333=DIRECTION('',(0.,0.,1.));
#334=DIRECTION('',(1.,0.,0.));
#335=DIRECTION('',(0.,0.,1.));
#336=DIRECTION('',(1.,0.,0.));
#337=DIRECTION('',(-1.,0.,0.));
#338=DIRECTION('',(0.,-1.,0.));
#339=DIRECTION('',(0.,0.,1.));
#340=DIRECTION('',(1.,0.,0.));
#341=DIRECTION('',(0.,-1.,0.));
#342=DIRECTION('',(0.,-1.,0.));
#343=DIRECTION('',(1.,0.,0.));
#344=DIRECTION('',(0.,-1.,0.));
#345=DIRECTION('',(0.,0.,-1.));
#346=DIRECTION('',(0.,0.,-1.));
#347=DIRECTION('',(-1.,0.,0.));
#348=DIRECTION('',(0.,0.,-1.));
#349=DIRECTION('',(1.,0.,0.));
#350=DIRECTION('',(0.,0.,-1.));
#351=DIRECTION('',(0.,0.,-1.));
#352=DIRECTION('',(0.,-1.,0.));
#353=DIRECTION('',(0.,1.,0.));
#354=DIRECTION('',(0.,0.,1.));
#355=DIRECTION('',(0.,0.,-1.));
#356=DIRECTION('',(1.,0.,0.));
#357=DIRECTION('',(1.,0.,0.));
#358=DIRECTION('',(0.,0.,-1.));
#359=DIRECTION('',(0.,0.,-1.));
#360=DIRECTION('',(0.,-1.,0.));
#361=DIRECTION('',(0.,1.,0.));
#362=DIRECTION('',(0.,0.,1.));
#363=DIRECTION('',(1.,0.,0.));
#364=DIRECTION('',(0.,0.,-1.));
#365=DIRECTION('',(1.,0.,0.));
#366=DIRECTION('',(-1.,0.,0.));
#367=DIRECTION('',(0.,0.,1.));
#368=DIRECTION('',(0.,1.,0.));
#369=DIRECTION('',(0.,1.,0.));
#370=DIRECTION('',(1.,0.,0.));
#371=DIRECTION('',(0.,0.,-1.));
#372=DIRECTION('',(0.,-1.,0.));
#373=DIRECTION('',(0.,0.,1.));
#374=DIRECTION('',(1.,0.,0.));
#375=DIRECTION('',(0.,0.,1.));
#376=DIRECTION('',(1.,0.,0.));
#377=CARTESIAN_POINT('',(0.,0.,0.));
#378=CARTESIAN_POINT('',(0.028575,0.,0.01905));
#379=CARTESIAN_POINT('',(0.028575,0.,0.));
#380=CARTESIAN_POINT('',(0.01905,0.,0.));
#381=CARTESIAN_POINT('',(0.0381,1.7347234759768E-18,0.));
#382=CARTESIAN_POINT('',(0.01905,0.,0.01905));
#383=CARTESIAN_POINT('',(0.01905,0.,0.01905));
#384=CARTESIAN_POINT('',(0.009525,0.,0.01905));
#385=CARTESIAN_POINT('',(0.,0.,0.01905));
#386=CARTESIAN_POINT('',(0.,0.,0.0381));
#387=CARTESIAN_POINT('',(0.,0.,0.0381));
#388=CARTESIAN_POINT('',(0.009525,0.,0.0381));
#389=CARTESIAN_POINT('',(0.05715,0.,0.0381));
#390=CARTESIAN_POINT('',(0.05715,0.,0.0381));
#391=CARTESIAN_POINT('',(0.05715,0.,0.01905));
#392=CARTESIAN_POINT('',(0.009525,0.,0.01905));
#393=CARTESIAN_POINT('',(0.0381,0.,0.01905));
#394=CARTESIAN_POINT('',(0.0381,1.7347234759768E-18,0.01905));
#395=CARTESIAN_POINT('',(0.01905,-0.009525,0.01905));
#396=CARTESIAN_POINT('',(0.01905,-0.009525,0.));
#397=CARTESIAN_POINT('',(0.01905,-0.01905,0.));
#398=CARTESIAN_POINT('',(0.01905,-0.01905,0.01905));
#399=CARTESIAN_POINT('',(0.01905,-0.01905,0.01905));
#400=CARTESIAN_POINT('',(0.01905,-0.009525,0.01905));
#401=CARTESIAN_POINT('',(0.028575,-0.01905,0.01905));
#402=CARTESIAN_POINT('',(0.028575,-0.01905,0.));
#403=CARTESIAN_POINT('',(0.0381,-0.01905,0.));
#404=CARTESIAN_POINT('',(0.0381,-0.01905,0.01905));
#405=CARTESIAN_POINT('',(0.0381,-0.01905,0.01905));
#406=CARTESIAN_POINT('',(0.028575,-0.01905,0.01905));
#407=CARTESIAN_POINT('',(0.0381,-0.009525,0.01905));
#408=CARTESIAN_POINT('',(0.0381,-0.009525,0.));
#409=CARTESIAN_POINT('',(0.0381,-0.009525,0.01905));
#410=CARTESIAN_POINT('',(0.028575,-0.009525,0.));
#411=CARTESIAN_POINT('',(0.028575,-0.01905,0.01905));
#412=CARTESIAN_POINT('',(0.009525,-0.01905,0.01905));
#413=CARTESIAN_POINT('',(0.,-0.01905,0.01905));
#414=CARTESIAN_POINT('',(0.,-0.009525,0.01905));
#415=CARTESIAN_POINT('',(0.028575,-0.01905,0.01905));
#416=CARTESIAN_POINT('',(0.01905,-0.028575,0.01905));
#417=CARTESIAN_POINT('',(0.01905,-0.0381,0.01905));
#418=CARTESIAN_POINT('',(0.0381,-0.028575,0.01905));
#419=CARTESIAN_POINT('',(0.0381,-0.0381,0.01905));
#420=CARTESIAN_POINT('',(0.028575,-0.0381,0.01905));
#421=CARTESIAN_POINT('',(0.009525,-0.01905,0.0381));
#422=CARTESIAN_POINT('',(0.01905,-0.01905,0.0381));
#423=CARTESIAN_POINT('',(0.01905,-0.01905,0.0381));
#424=CARTESIAN_POINT('',(0.009525,-0.01905,0.0381));
#425=CARTESIAN_POINT('',(0.,-0.01905,0.0381));
#426=CARTESIAN_POINT('',(0.,-0.01905,0.0381));
#427=CARTESIAN_POINT('',(0.01905,-0.028575,0.0381));
#428=CARTESIAN_POINT('',(0.01905,-0.0381,0.0381));
#429=CARTESIAN_POINT('',(0.01905,-0.0381,0.0381));
#430=CARTESIAN_POINT('',(0.01905,-0.028575,0.0381));
#431=CARTESIAN_POINT('',(0.028575,-0.0381,0.0381));
#432=CARTESIAN_POINT('',(0.0381,-0.0381,0.0381));
#433=CARTESIAN_POINT('',(0.0381,-0.0381,0.0381));
#434=CARTESIAN_POINT('',(0.028575,-0.0381,0.0381));
#435=CARTESIAN_POINT('',(0.0381,-0.028575,0.0381));
#436=CARTESIAN_POINT('',(0.0381,-0.01905,0.0381));
#437=CARTESIAN_POINT('',(0.0381,-0.01905,0.0381));
#438=CARTESIAN_POINT('',(0.0381,-0.028575,0.0381));
#439=CARTESIAN_POINT('',(0.047625,-0.01905,0.0381));
#440=CARTESIAN_POINT('',(0.047625,-0.01905,0.01905));
#441=CARTESIAN_POINT('',(0.05715,-0.01905,0.01905));
#442=CARTESIAN_POINT('',(0.05715,-0.01905,0.0381));
#443=CARTESIAN_POINT('',(0.05715,-0.01905,0.0381));
#444=CARTESIAN_POINT('',(0.047625,-0.01905,0.0381));
#445=CARTESIAN_POINT('',(0.05715,-0.009525,0.0381));
#446=CARTESIAN_POINT('',(0.05715,-0.009525,0.01905));
#447=CARTESIAN_POINT('',(0.05715,-0.009525,0.0381));
#448=CARTESIAN_POINT('',(0.,-0.009525,0.0381));
#449=CARTESIAN_POINT('',(0.,-0.009525,0.0381));
#450=CARTESIAN_POINT('',(0.028575,-0.01905,0.0381));
#451=CARTESIAN_POINT('',(0.028575,-0.01905,0.01905));
#452=MECHANICAL_DESIGN_GEOMETRIC_PRESENTATION_REPRESENTATION('',(#279),
#453);
#453=(
GEOMETRIC_REPRESENTATION_CONTEXT(3)
GLOBAL_UNCERTAINTY_ASSIGNED_CONTEXT((#454))
GLOBAL_UNIT_ASSIGNED_CONTEXT((#457,#456,#455))
REPRESENTATION_CONTEXT('Part 1','TOP_LEVEL_ASSEMBLY_PART')
);
#454=UNCERTAINTY_MEASURE_WITH_UNIT(LENGTH_MEASURE(1.E-8),#457,
'DISTANCE_ACCURACY_VALUE','Maximum Tolerance applied to model');
#455=(
NAMED_UNIT(*)
SI_UNIT($,.STERADIAN.)
SOLID_ANGLE_UNIT()
);
#456=(
NAMED_UNIT(*)
PLANE_ANGLE_UNIT()
SI_UNIT($,.RADIAN.)
);
#457=(
LENGTH_UNIT()
NAMED_UNIT(*)
SI_UNIT($,.METRE.)
);
#458=PRODUCT_DEFINITION_SHAPE('','',#459);
#459=PRODUCT_DEFINITION('','',#461,#460);
#460=PRODUCT_DEFINITION_CONTEXT('',#467,'design');
#461=PRODUCT_DEFINITION_FORMATION_WITH_SPECIFIED_SOURCE('','',#463,
 .NOT_KNOWN.);
#462=PRODUCT_RELATED_PRODUCT_CATEGORY('','',(#463));
#463=PRODUCT('Part 1','Part 1','Part 1',(#465));
#464=PRODUCT_CATEGORY('','');
#465=PRODUCT_CONTEXT('',#467,'mechanical');
#466=APPLICATION_PROTOCOL_DEFINITION('international standard',
'ap242_managed_model_based_3d_engineering',2020,#467);
#467=APPLICATION_CONTEXT('managed model based 3d engineering');
ENDSEC;
END-ISO-10303-21;
