ISO-10303-21;
HEADER;
/* Generated by software containing ST-Developer
 * from STEP Tools, Inc. (www.steptools.com) 
 */
/* OPTION: using custom renumber hook */

FILE_DESCRIPTION(
/* description */ ('STEP AP242 Edition 2',
'CAx-IF Rec.Pracs.---Representation and Presentation of Product Manufa
cturing Information (PMI)---4.0---2014-10-13',
'CAx-IF Rec.Pracs.---3D Tessellated Geometry---0.4---2014-09-14','2;1',
'CAx-IF Rec.Pracs.---User Defined Attributes---1.5---2016-08-15'),
/* implementation_level */ '2;1');

FILE_NAME(
/* name */ '6969150d99ff06cf88e099ab',
/* time_stamp */ '2026-01-15T16:25:50Z',
/* author */ (''),
/* organization */ (''),
/* preprocessor_version */ 'ST-DEVELOPER v20',
/* originating_system */ 'ONSHAPE BY PTC INC, 1.209',
/* authorisation */ '  ');

FILE_SCHEMA (('AP242_MANAGED_MODEL_BASED_3D_ENGINEERING_MIM_LF { 1 0 10303 442 3 1 4 }'));
ENDSEC;

DATA;
#10=SHAPE_REPRESENTATION_RELATIONSHIP('','',#193,#11);
#11=ADVANCED_BREP_SHAPE_REPRESENTATION('',(#191),#300);
#12=ORIENTED_EDGE('',*,*,#58,.T.);
#13=ORIENTED_EDGE('',*,*,#59,.T.);
#14=ORIENTED_EDGE('',*,*,#60,.T.);
#15=ORIENTED_EDGE('',*,*,#61,.F.);
#16=ORIENTED_EDGE('',*,*,#62,.F.);
#17=ORIENTED_EDGE('',*,*,#63,.F.);
#18=ORIENTED_EDGE('',*,*,#64,.T.);
#19=ORIENTED_EDGE('',*,*,#65,.T.);
#20=ORIENTED_EDGE('',*,*,#60,.F.);
#21=ORIENTED_EDGE('',*,*,#66,.F.);
#22=ORIENTED_EDGE('',*,*,#67,.F.);
#23=ORIENTED_EDGE('',*,*,#68,.T.);
#24=ORIENTED_EDGE('',*,*,#62,.T.);
#25=ORIENTED_EDGE('',*,*,#69,.T.);
#26=ORIENTED_EDGE('',*,*,#64,.F.);
#27=ORIENTED_EDGE('',*,*,#70,.F.);
#28=ORIENTED_EDGE('',*,*,#71,.F.);
#29=ORIENTED_EDGE('',*,*,#72,.F.);
#30=ORIENTED_EDGE('',*,*,#67,.T.);
#31=ORIENTED_EDGE('',*,*,#68,.F.);
#32=ORIENTED_EDGE('',*,*,#72,.T.);
#33=ORIENTED_EDGE('',*,*,#73,.T.);
#34=ORIENTED_EDGE('',*,*,#74,.F.);
#35=ORIENTED_EDGE('',*,*,#75,.T.);
#36=ORIENTED_EDGE('',*,*,#58,.F.);
#37=ORIENTED_EDGE('',*,*,#66,.T.);
#38=ORIENTED_EDGE('',*,*,#61,.T.);
#39=ORIENTED_EDGE('',*,*,#65,.F.);
#40=ORIENTED_EDGE('',*,*,#69,.F.);
#41=ORIENTED_EDGE('',*,*,#63,.T.);
#42=ORIENTED_EDGE('',*,*,#76,.F.);
#43=ORIENTED_EDGE('',*,*,#77,.F.);
#44=ORIENTED_EDGE('',*,*,#78,.F.);
#45=ORIENTED_EDGE('',*,*,#70,.T.);
#46=ORIENTED_EDGE('',*,*,#71,.T.);
#47=ORIENTED_EDGE('',*,*,#78,.T.);
#48=ORIENTED_EDGE('',*,*,#79,.F.);
#49=ORIENTED_EDGE('',*,*,#73,.F.);
#50=ORIENTED_EDGE('',*,*,#59,.F.);
#51=ORIENTED_EDGE('',*,*,#75,.F.);
#52=ORIENTED_EDGE('',*,*,#80,.T.);
#53=ORIENTED_EDGE('',*,*,#76,.T.);
#54=ORIENTED_EDGE('',*,*,#80,.F.);
#55=ORIENTED_EDGE('',*,*,#74,.T.);
#56=ORIENTED_EDGE('',*,*,#79,.T.);
#57=ORIENTED_EDGE('',*,*,#77,.T.);
#58=EDGE_CURVE('',#81,#82,#96,.T.);
#59=EDGE_CURVE('',#82,#83,#97,.T.);
#60=EDGE_CURVE('',#83,#84,#98,.T.);
#61=EDGE_CURVE('',#85,#84,#99,.T.);
#62=EDGE_CURVE('',#81,#85,#100,.T.);
#63=EDGE_CURVE('',#86,#83,#101,.T.);
#64=EDGE_CURVE('',#86,#87,#102,.T.);
#65=EDGE_CURVE('',#87,#84,#103,.T.);
#66=EDGE_CURVE('',#88,#85,#104,.T.);
#67=EDGE_CURVE('',#89,#88,#105,.T.);
#68=EDGE_CURVE('',#89,#81,#106,.T.);
#69=EDGE_CURVE('',#88,#87,#107,.T.);
#70=EDGE_CURVE('',#90,#86,#108,.T.);
#71=EDGE_CURVE('',#91,#90,#109,.T.);
#72=EDGE_CURVE('',#89,#91,#110,.T.);
#73=EDGE_CURVE('',#91,#92,#111,.T.);
#74=EDGE_CURVE('',#93,#92,#112,.T.);
#75=EDGE_CURVE('',#93,#82,#113,.T.);
#76=EDGE_CURVE('',#94,#83,#114,.T.);
#77=EDGE_CURVE('',#95,#94,#115,.T.);
#78=EDGE_CURVE('',#90,#95,#116,.T.);
#79=EDGE_CURVE('',#92,#95,#117,.T.);
#80=EDGE_CURVE('',#93,#94,#118,.T.);
#81=VERTEX_POINT('',#253);
#82=VERTEX_POINT('',#254);
#83=VERTEX_POINT('',#256);
#84=VERTEX_POINT('',#258);
#85=VERTEX_POINT('',#260);
#86=VERTEX_POINT('',#264);
#87=VERTEX_POINT('',#266);
#88=VERTEX_POINT('',#270);
#89=VERTEX_POINT('',#272);
#90=VERTEX_POINT('',#277);
#91=VERTEX_POINT('',#279);
#92=VERTEX_POINT('',#283);
#93=VERTEX_POINT('',#285);
#94=VERTEX_POINT('',#290);
#95=VERTEX_POINT('',#292);
#96=LINE('',#252,#119);
#97=LINE('',#255,#120);
#98=LINE('',#257,#121);
#99=LINE('',#259,#122);
#100=LINE('',#261,#123);
#101=LINE('',#263,#124);
#102=LINE('',#265,#125);
#103=LINE('',#267,#126);
#104=LINE('',#269,#127);
#105=LINE('',#271,#128);
#106=LINE('',#273,#129);
#107=LINE('',#275,#130);
#108=LINE('',#276,#131);
#109=LINE('',#278,#132);
#110=LINE('',#280,#133);
#111=LINE('',#282,#134);
#112=LINE('',#284,#135);
#113=LINE('',#286,#136);
#114=LINE('',#289,#137);
#115=LINE('',#291,#138);
#116=LINE('',#293,#139);
#117=LINE('',#295,#140);
#118=LINE('',#297,#141);
#119=VECTOR('',#209,1.);
#120=VECTOR('',#210,1.);
#121=VECTOR('',#211,1.);
#122=VECTOR('',#212,1.);
#123=VECTOR('',#213,1.);
#124=VECTOR('',#216,1.);
#125=VECTOR('',#217,1.);
#126=VECTOR('',#218,1.);
#127=VECTOR('',#221,1.);
#128=VECTOR('',#222,1.);
#129=VECTOR('',#223,1.);
#130=VECTOR('',#226,1.);
#131=VECTOR('',#227,1.);
#132=VECTOR('',#228,1.);
#133=VECTOR('',#229,1.);
#134=VECTOR('',#232,1.);
#135=VECTOR('',#233,1.);
#136=VECTOR('',#234,1.);
#137=VECTOR('',#239,1.);
#138=VECTOR('',#240,1.);
#139=VECTOR('',#241,1.);
#140=VECTOR('',#244,1.);
#141=VECTOR('',#247,1.);
#142=EDGE_LOOP('',(#12,#13,#14,#15,#16));
#143=EDGE_LOOP('',(#17,#18,#19,#20));
#144=EDGE_LOOP('',(#21,#22,#23,#24));
#145=EDGE_LOOP('',(#25,#26,#27,#28,#29,#30));
#146=EDGE_LOOP('',(#31,#32,#33,#34,#35,#36));
#147=EDGE_LOOP('',(#37,#38,#39,#40));
#148=EDGE_LOOP('',(#41,#42,#43,#44,#45));
#149=EDGE_LOOP('',(#46,#47,#48,#49));
#150=EDGE_LOOP('',(#50,#51,#52,#53));
#151=EDGE_LOOP('',(#54,#55,#56,#57));
#152=FACE_BOUND('',#142,.T.);
#153=FACE_BOUND('',#143,.T.);
#154=FACE_BOUND('',#144,.T.);
#155=FACE_BOUND('',#145,.T.);
#156=FACE_BOUND('',#146,.T.);
#157=FACE_BOUND('',#147,.T.);
#158=FACE_BOUND('',#148,.T.);
#159=FACE_BOUND('',#149,.T.);
#160=FACE_BOUND('',#150,.T.);
#161=FACE_BOUND('',#151,.T.);
#162=PLANE('',#195);
#163=PLANE('',#196);
#164=PLANE('',#197);
#165=PLANE('',#198);
#166=PLANE('',#199);
#167=PLANE('',#200);
#168=PLANE('',#201);
#169=PLANE('',#202);
#170=PLANE('',#203);
#171=PLANE('',#204);
#172=ADVANCED_FACE('',(#152),#162,.T.);
#173=ADVANCED_FACE('',(#153),#163,.F.);
#174=ADVANCED_FACE('',(#154),#164,.T.);
#175=ADVANCED_FACE('',(#155),#165,.F.);
#176=ADVANCED_FACE('',(#156),#166,.T.);
#177=ADVANCED_FACE('',(#157),#167,.F.);
#178=ADVANCED_FACE('',(#158),#168,.F.);
#179=ADVANCED_FACE('',(#159),#169,.T.);
#180=ADVANCED_FACE('',(#160),#170,.T.);
#181=ADVANCED_FACE('',(#161),#171,.T.);
#182=CLOSED_SHELL('',(#172,#173,#174,#175,#176,#177,#178,#179,#180,#181));
#183=STYLED_ITEM('',(#184),#191);
#184=PRESENTATION_STYLE_ASSIGNMENT((#185));
#185=SURFACE_STYLE_USAGE(.BOTH.,#186);
#186=SURFACE_SIDE_STYLE('',(#187));
#187=SURFACE_STYLE_FILL_AREA(#188);
#188=FILL_AREA_STYLE('',(#189));
#189=FILL_AREA_STYLE_COLOUR('',#190);
#190=COLOUR_RGB('',0.980392156862745,0.796078431372549,0.262745098039216);
#191=MANIFOLD_SOLID_BREP('Part 1',#182);
#192=SHAPE_DEFINITION_REPRESENTATION(#305,#193);
#193=SHAPE_REPRESENTATION('Part 1',(#194),#300);
#194=AXIS2_PLACEMENT_3D('',#250,#205,#206);
#195=AXIS2_PLACEMENT_3D('',#251,#207,#208);
#196=AXIS2_PLACEMENT_3D('',#262,#214,#215);
#197=AXIS2_PLACEMENT_3D('',#268,#219,#220);
#198=AXIS2_PLACEMENT_3D('',#274,#224,#225);
#199=AXIS2_PLACEMENT_3D('',#281,#230,#231);
#200=AXIS2_PLACEMENT_3D('',#287,#235,#236);
#201=AXIS2_PLACEMENT_3D('',#288,#237,#238);
#202=AXIS2_PLACEMENT_3D('',#294,#242,#243);
#203=AXIS2_PLACEMENT_3D('',#296,#245,#246);
#204=AXIS2_PLACEMENT_3D('',#298,#248,#249);
#205=DIRECTION('',(0.,0.,1.));
#206=DIRECTION('',(1.,0.,0.));
#207=DIRECTION('',(1.,0.,0.));
#208=DIRECTION('',(0.,0.,-1.));
#209=DIRECTION('',(0.,-1.,0.));
#210=DIRECTION('',(0.,0.,-1.));
#211=DIRECTION('',(0.,0.,-1.));
#212=DIRECTION('',(0.,-1.,0.));
#213=DIRECTION('',(0.,0.,-1.));
#214=DIRECTION('',(0.,1.,0.));
#215=DIRECTION('',(0.,0.,1.));
#216=DIRECTION('',(1.,0.,3.64246399155235E-16));
#217=DIRECTION('',(0.,0.,-1.));
#218=DIRECTION('',(1.,0.,0.));
#219=DIRECTION('',(0.,1.,0.));
#220=DIRECTION('',(0.,0.,1.));
#221=DIRECTION('',(1.,0.,0.));
#222=DIRECTION('',(0.,0.,-1.));
#223=DIRECTION('',(1.,0.,0.));
#224=DIRECTION('',(1.,0.,0.));
#225=DIRECTION('',(0.,0.,-1.));
#226=DIRECTION('',(0.,-1.,0.));
#227=DIRECTION('',(0.,1.,0.));
#228=DIRECTION('',(0.,0.,-1.));
#229=DIRECTION('',(0.,-1.,0.));
#230=DIRECTION('',(0.,0.,1.));
#231=DIRECTION('',(1.,0.,0.));
#232=DIRECTION('',(1.,0.,0.));
#233=DIRECTION('',(0.,-1.,0.));
#234=DIRECTION('',(-1.,0.,0.));
#235=DIRECTION('',(0.,0.,1.));
#236=DIRECTION('',(1.,0.,0.));
#237=DIRECTION('',(-3.64246399155235E-16,0.,1.));
#238=DIRECTION('',(1.,0.,3.64246399155235E-16));
#239=DIRECTION('',(-1.,0.,0.));
#240=DIRECTION('',(0.,1.,0.));
#241=DIRECTION('',(1.,0.,3.64246399155235E-16));
#242=DIRECTION('',(0.,-1.,0.));
#243=DIRECTION('',(1.,0.,0.));
#244=DIRECTION('',(0.,0.,-1.));
#245=DIRECTION('',(0.,1.,0.));
#246=DIRECTION('',(0.,0.,1.));
#247=DIRECTION('',(0.,0.,-1.));
#248=DIRECTION('',(1.,0.,0.));
#249=DIRECTION('',(0.,1.,0.));
#250=CARTESIAN_POINT('',(0.,0.,0.));
#251=CARTESIAN_POINT('',(0.01905,-0.009525,0.0381));
#252=CARTESIAN_POINT('',(0.01905,-0.009525,0.0381));
#253=CARTESIAN_POINT('',(0.01905,0.,0.0381));
#254=CARTESIAN_POINT('',(0.01905,-0.01905,0.0381));
#255=CARTESIAN_POINT('',(0.01905,-0.01905,0.028575));
#256=CARTESIAN_POINT('',(0.01905,-0.01905,0.01905));
#257=CARTESIAN_POINT('',(0.01905,-0.01905,0.0381));
#258=CARTESIAN_POINT('',(0.01905,-0.01905,0.));
#259=CARTESIAN_POINT('',(0.01905,-0.009525,0.));
#260=CARTESIAN_POINT('',(0.01905,0.,0.));
#261=CARTESIAN_POINT('',(0.01905,0.,0.0381));
#262=CARTESIAN_POINT('',(0.009525,-0.01905,0.0381));
#263=CARTESIAN_POINT('',(0.009525,-0.01905,0.01905));
#264=CARTESIAN_POINT('',(1.7347234759768E-18,-0.01905,0.01905));
#265=CARTESIAN_POINT('',(1.7347234759768E-18,-0.01905,0.0381));
#266=CARTESIAN_POINT('',(1.7347234759768E-18,-0.01905,0.));
#267=CARTESIAN_POINT('',(0.009525,-0.01905,0.));
#268=CARTESIAN_POINT('',(0.009525,0.,0.0381));
#269=CARTESIAN_POINT('',(0.009525,0.,0.));
#270=CARTESIAN_POINT('',(0.,0.,0.));
#271=CARTESIAN_POINT('',(0.,0.,0.0381));
#272=CARTESIAN_POINT('',(0.,0.,0.0381));
#273=CARTESIAN_POINT('',(0.009525,0.,0.0381));
#274=CARTESIAN_POINT('',(0.,-0.009525,0.0381));
#275=CARTESIAN_POINT('',(0.,-0.009525,0.));
#276=CARTESIAN_POINT('',(1.7347234759768E-18,-0.0381,0.01905));
#277=CARTESIAN_POINT('',(1.7347234759768E-18,-0.0381,0.01905));
#278=CARTESIAN_POINT('',(1.7347234759768E-18,-0.0381,0.0381));
#279=CARTESIAN_POINT('',(1.7347234759768E-18,-0.0381,0.0381));
#280=CARTESIAN_POINT('',(0.,-0.009525,0.0381));
#281=CARTESIAN_POINT('',(0.009525,-0.009525,0.0381));
#282=CARTESIAN_POINT('',(0.009525,-0.0381,0.0381));
#283=CARTESIAN_POINT('',(0.0381,-0.0381,0.0381));
#284=CARTESIAN_POINT('',(0.0381,-0.009525,0.0381));
#285=CARTESIAN_POINT('',(0.0381,-0.01905,0.0381));
#286=CARTESIAN_POINT('',(0.0381,-0.01905,0.0381));
#287=CARTESIAN_POINT('',(0.009525,-0.009525,0.));
#288=CARTESIAN_POINT('',(0.009525,-0.0381,0.01905));
#289=CARTESIAN_POINT('',(0.0381,-0.01905,0.01905));
#290=CARTESIAN_POINT('',(0.0381,-0.01905,0.01905));
#291=CARTESIAN_POINT('',(0.0381,-0.0381,0.01905));
#292=CARTESIAN_POINT('',(0.0381,-0.0381,0.01905));
#293=CARTESIAN_POINT('',(0.009525,-0.0381,0.01905));
#294=CARTESIAN_POINT('',(0.009525,-0.0381,0.01905));
#295=CARTESIAN_POINT('',(0.0381,-0.0381,0.0381));
#296=CARTESIAN_POINT('',(0.0381,-0.01905,0.028575));
#297=CARTESIAN_POINT('',(0.0381,-0.01905,0.028575));
#298=CARTESIAN_POINT('',(0.0381,-0.01905,0.01905));
#299=MECHANICAL_DESIGN_GEOMETRIC_PRESENTATION_REPRESENTATION('',(#183),
#300);
#300=(
GEOMETRIC_REPRESENTATION_CONTEXT(3)
GLOBAL_UNCERTAINTY_ASSIGNED_CONTEXT((#301))
GLOBAL_UNIT_ASSIGNED_CONTEXT((#304,#303,#302))
REPRESENTATION_CONTEXT('Part 1','TOP_LEVEL_ASSEMBLY_PART')
);
#301=UNCERTAINTY_MEASURE_WITH_UNIT(LENGTH_MEASURE(1.E-8),#304,
'DISTANCE_ACCURACY_VALUE','Maximum Tolerance applied to model');
#302=(
NAMED_UNIT(*)
SI_UNIT($,.STERADIAN.)
SOLID_ANGLE_UNIT()
);
#303=(
NAMED_UNIT(*)
PLANE_ANGLE_UNIT()
SI_UNIT($,.RADIAN.)
);
#304=(
LENGTH_UNIT()
NAMED_UNIT(*)
SI_UNIT($,.METRE.)
);
#305=PRODUCT_DEFINITION_SHAPE('','',#306);
#306=PRODUCT_DEFINITION('','',#308,#307);
#307=PRODUCT_DEFINITION_CONTEXT('',#314,'design');
#308=PRODUCT_DEFINITION_FORMATION_WITH_SPECIFIED_SOURCE('','',#310,
 .NOT_KNOWN.);
#309=PRODUCT_RELATED_PRODUCT_CATEGORY('','',(#310));
#310=PRODUCT('Part 1','Part 1','Part 1',(#312));
#311=PRODUCT_CATEGORY('','');
#312=PRODUCT_CONTEXT('',#314,'mechanical');
#313=APPLICATION_PROTOCOL_DEFINITION('international standard',
'ap242_managed_model_based_3d_engineering',2020,#314);
#314=APPLICATION_CONTEXT('managed model based 3d engineering');
ENDSEC;
END-ISO-10303-21;
